<svg xmlns="http://www.w3.org/2000/svg" viewBox="0 0 699 406"><defs><style>.cls-1{fill:#ff6501;}.cls-2{fill:#333;}.cls-3{fill:#fff;}.cls-4{fill:#b3b3b3;}</style></defs><title>Fichier 2</title><g id="Calque_2" data-name="Calque 2"><g id="Calque_1-2" data-name="Calque 1"><path class="cls-1" d="M524,300H674a25.07,25.07,0,0,0,25-25V131a25.07,25.07,0,0,0-25-25H524a13,13,0,0,0-13,13V287A13,13,0,0,0,524,300Z"/><path class="cls-1" d="M24.5,300h105A12.5,12.5,0,0,0,142,287.5v-169A12.5,12.5,0,0,0,129.5,106H24.5A24.57,24.57,0,0,0,0,130.5v145A24.57,24.57,0,0,0,24.5,300Z"/><rect class="cls-2" x="77.25" width="545" height="406" rx="49" ry="49"/><path class="cls-3" d="M590.5,64.5v232A3.5,3.5,0,0,0,594,300h0a3.5,3.5,0,0,0,3.5-3.5V64.5a42,42,0,0,0-42-42h-410A3.5,3.5,0,0,0,142,26h0a3.5,3.5,0,0,0,3.5,3.5h410A35,35,0,0,1,590.5,64.5Z"/><path class="cls-3" d="M234.5,376.5h-91a35,35,0,0,1-35-35v-220A3.5,3.5,0,0,0,105,118h0a3.5,3.5,0,0,0-3.5,3.5v220a42,42,0,0,0,42,42h91A3.5,3.5,0,0,0,238,380h0A3.5,3.5,0,0,0,234.5,376.5Z"/><circle class="cls-3" cx="444" cy="380" r="3.5"/><circle class="cls-3" cx="466" cy="380" r="3.5"/><circle class="cls-3" cx="488" cy="380" r="3.5"/><path class="cls-3" d="M305,198.41c0-37.29-30.66-66.34-68-66.34S170,161.12,170,198.41a67.52,67.52,0,0,0,135,0Z"/><path class="cls-3" d="M530,198.41c0-37.29-29.8-66.34-67.09-66.34s-68,29-68,66.34a67.52,67.52,0,0,0,135,0Z"/><path class="cls-2" d="M462.73,237.35a36.3,36.3,0,1,1,36.3-36.3A36.34,36.34,0,0,1,462.73,237.35Z"/><path class="cls-4" d="M462.73,168.76a32.3,32.3,0,1,1-32.3,32.3,32.3,32.3,0,0,1,32.3-32.3m0-8a40.3,40.3,0,1,0,40.3,40.3,40.34,40.34,0,0,0-40.3-40.3Z"/><path class="cls-2" d="M237.27,237.35a36.3,36.3,0,1,1,36.3-36.3A36.34,36.34,0,0,1,237.27,237.35Z"/><path class="cls-4" d="M237.27,168.76a32.3,32.3,0,1,1-32.3,32.3,32.3,32.3,0,0,1,32.3-32.3m0-8a40.3,40.3,0,1,0,40.3,40.3,40.34,40.34,0,0,0-40.3-40.3Z"/></g></g></svg>