<svg xmlns="http://www.w3.org/2000/svg" viewBox="0 0 362.91 408.61"><defs><style>.cls-1{fill:#ff6501;}.cls-2{fill:#333;}</style></defs><title>Fichier 6</title><g id="Calque_2" data-name="Calque 2"><g id="Calque_1-2" data-name="Calque 1"><path class="cls-1" d="M34.51,192.84a5.79,5.79,0,1,1-5.79-5.79,5.79,5.79,0,0,1,5.79,5.79Z"/><path class="cls-2" d="M341.76,317.44a6,6,0,0,0-6,6v59.75a13.54,13.54,0,0,1-13.47,13.47H109.43a6,6,0,0,0,0,12H322.31a25.42,25.42,0,0,0,25.44-25.44V323.42a5.94,5.94,0,0,0-6-6Z"/><path class="cls-1" d="M54.86,350.26a6,6,0,0,0,0,12H312.33a6,6,0,0,0,0-12H146.64V315.14H312.33a6,6,0,0,0,0-12h-79.8v-41.1a6,6,0,0,0-12,0v41.1H54.86a6,6,0,0,0,0,12h79.8v35.11Z"/><path class="cls-1" d="M34.51,122.82A5.79,5.79,0,1,1,28.73,117a5.79,5.79,0,0,1,5.79,5.79Z"/><path class="cls-2" d="M348.24,151.85H100.35l-2.79-6.58L285.7,87.6a6,6,0,0,0,4-7.48,6,6,0,0,0-7.48-4L272,79.22l30.33-57.16L335.18,12a2.82,2.82,0,0,1,3.39,1.8l11.87,38.61a2.69,2.69,0,0,1-1.8,3.39l-39.2,12.07a6,6,0,0,0-4,7.48,6,6,0,0,0,7.48,4l39.2-12a14.77,14.77,0,0,0,8.68-7.18A15,15,0,0,0,361.91,49L350,10.39A14.76,14.76,0,0,0,331.68.62l-305,93.47H15.16A15.16,15.16,0,0,0,0,109.25v97.06a15.16,15.16,0,0,0,15.16,15.16h4.19v161.6a25.42,25.42,0,0,0,25.44,25.44H76.31a6,6,0,0,0,0-12H44.79a13.54,13.54,0,0,1-13.47-13.47V221.47H335.77V294a6,6,0,0,0,12,0V221.57h.5a14.69,14.69,0,0,0,14.66-14.66v-40.4a14.69,14.69,0,0,0-14.66-14.66Zm-62-124.69L255.87,84.31,211.38,97.88l30.33-57.16ZM225.55,45.71l-30.33,57.16-68,20.85,30.33-57.16ZM96.86,85.11l44.49-13.57L111,128.7,93,134.29l-9.88-23Zm-16.26,5-4.39,8.38a14.55,14.55,0,0,0-9.08-4.19Zm29.33,118.11a3.24,3.24,0,0,1-2.69,1.4H15.16A3.15,3.15,0,0,1,12,206.41V109.35a3.15,3.15,0,0,1,3.19-3.19H65.54a3.46,3.46,0,0,1,3,1.9l2.19,5.19h0l20.05,46.88v.1l19,44.29h0l.2.6a3.22,3.22,0,0,1,0,3.09Zm-4.39-44.39h39.9l-27.93,27.93Zm82.3,45.79H122.1a15,15,0,0,0,.2-5.59l40.2-40.2h71.22Zm63.34,0H204.7l45.79-45.79H297Zm99.75-2.69a2.68,2.68,0,0,1-2.69,2.69h-80.1l45.79-45.79h34.32a2.68,2.68,0,0,1,2.69,2.69Z"/></g></g></svg>