<svg xmlns="http://www.w3.org/2000/svg" viewBox="0 0 323.4 409.6"><defs><style>.cls-1{fill:#333;}.cls-2{fill:#ff6501;}</style></defs><title>Fichier 5</title><g id="Calque_2" data-name="Calque 2"><g id="Calque_1-2" data-name="Calque 1"><path class="cls-1" d="M192.2,199.2a44.7,44.7,0,1,0-60.4,0,41.13,41.13,0,0,0-26.1,38.3v50.8H218.2V237.5A41,41,0,0,0,192.2,199.2Zm-62.9-32.9a32.7,32.7,0,1,1,44.4,30.5l-.9.3c-.2.1-.3.1-.5.2l-1.1.3c-.1,0-.2.1-.3.1l-1.2.3h-.2a34.05,34.05,0,0,1-14.9,0h-.1c-.4-.1-.8-.2-1.3-.3-.1,0-.2-.1-.3-.1l-1.1-.3c-.2-.1-.3-.1-.5-.2s-.6-.2-1-.3A32.8,32.8,0,0,1,129.3,166.3Zm77,110H117.8V237.5a29.28,29.28,0,0,1,29.1-29.2c1,.4,2,.7,3,1a2.35,2.35,0,0,0,.8.2l1,.3a3.55,3.55,0,0,0,1,.2c.3.1.6.1,1,.2s.8.1,1.1.2.6.1.9.1.8.1,1.2.2.6.1.8.1c.5,0,.9.1,1.4.1h.7c.7,0,1.4.1,2.1.1a14.77,14.77,0,0,0,2.1-.1h.7c.5,0,.9-.1,1.4-.1.3,0,.6-.1.8-.1a5,5,0,0,0,1.2-.2c.3,0,.6-.1.9-.1s.8-.1,1.1-.2.6-.1,1-.2a3.55,3.55,0,0,1,1-.2l1-.3a3.09,3.09,0,0,1,.8-.2c1-.3,2-.6,3-1A29.28,29.28,0,0,1,206,237.5v38.8Z"/><path class="cls-1" d="M297.7,12a13.72,13.72,0,0,1,13.7,13.7V383.9a13.72,13.72,0,0,1-13.7,13.7H25.7A13.72,13.72,0,0,1,12,383.9V25.7A13.72,13.72,0,0,1,25.7,12h272m0-12H25.7A25.82,25.82,0,0,0,0,25.7V383.9a25.82,25.82,0,0,0,25.7,25.7h272a25.82,25.82,0,0,0,25.7-25.7V25.7A25.82,25.82,0,0,0,297.7,0Z"/><path class="cls-2" d="M28.1,141h0a6,6,0,0,0-6,6V372.7a15.79,15.79,0,0,0,15.7,15.7H245.4a6,6,0,0,0,6-6h0a6,6,0,0,0-6-6H40.1a6,6,0,0,1-6-6V147A6,6,0,0,0,28.1,141Z"/><path class="cls-2" d="M288.3,21.3H78a6,6,0,0,0-6,6h0a6,6,0,0,0,6,6H283.3a6,6,0,0,1,6,6V262.7a6,6,0,0,0,6,6h0a6,6,0,0,0,6-6V34.3A13,13,0,0,0,288.3,21.3Z"/></g></g></svg>