<svg xmlns="http://www.w3.org/2000/svg" xmlns:xlink="http://www.w3.org/1999/xlink" viewBox="0 0 377.9 407.54"><defs><style>.cls-1{fill:none;}.cls-2{clip-path:url(#clip-path);}.cls-3{fill:#333;}.cls-4{fill:#ff6501;}</style><clipPath id="clip-path" transform="translate(-5.56)"><rect class="cls-1" width="389.01" height="407.54"/></clipPath></defs><title>Fichier 7</title><g id="Calque_2" data-name="Calque 2"><g id="Calque_1-2" data-name="Calque 1"><g class="cls-2"><path class="cls-3" d="M380.68,1.85C378.82,0,377,0,375.12,0L145.42,29.64c-3.71.93-6.48,3.71-6.48,7.41V301c-13.89-16.67-35.2-26.86-59.28-26.86-40.75,0-74.1,29.64-74.1,66.69s33.34,66.69,74.1,66.69,74.1-29.64,74.1-66.69V118.56L368.64,90.77V226c-13.89-16.67-35.2-26.86-59.28-26.86-40.75,0-74.1,29.64-74.1,66.69s33.34,66.69,74.1,66.69,73.17-29.64,74.1-65.76h0V6.48c0-.93-.93-2.78-2.78-4.63Zm-301,390.86c-32.42,0-59.28-23.16-59.28-51.87S47.24,289,79.65,289s59.28,23.16,59.28,51.87-26.86,51.87-59.28,51.87Zm229.7-74.1c-32.42,0-59.28-23.16-59.28-51.87s26.86-51.87,59.28-51.87,59.28,23.16,59.28,51.87-26.86,51.87-59.28,51.87Zm-155.61-214V43.53L368.64,15.75V76.88Z" transform="translate(-5.56)"/></g><path class="cls-4" d="M174.13,77.8a6.33,6.33,0,0,1-6.48-6.48,5.93,5.93,0,0,1,5.56-7.41L291.76,48.16a5.93,5.93,0,0,1,7.41,5.56c0,3.7-1.85,7.41-5.56,7.41L174.13,77.8Z" transform="translate(-5.56)"/><circle class="cls-4" cx="315.84" cy="51.87" r="6.48"/><circle class="cls-4" cx="342.7" cy="48.16" r="6.48"/></g></g></svg>