<svg xmlns="http://www.w3.org/2000/svg" viewBox="0 0 416.66 409.48"><defs><style>.cls-1{fill:#333;}.cls-2{fill:#ff6501;}</style></defs><title>Fichier 10</title><g id="Calque_2" data-name="Calque 2"><g id="Calque_1-2" data-name="Calque 1"><path class="cls-1" d="M308,28.74C304.41,12.57,290,0,273,0a7.73,7.73,0,0,0-7.18,7.18A7.73,7.73,0,0,0,273,14.37a21.85,21.85,0,0,1,21.55,21.55A21.85,21.85,0,0,1,273,57.47a7.73,7.73,0,0,0-7.18,7.18A7.73,7.73,0,0,0,273,71.84c17.06,0,31.43-12.57,35-28.74h94.29v64.65H14.37V43.1H136.49a7.73,7.73,0,0,0,7.18-7.18,7.73,7.73,0,0,0-7.18-7.18H123a21.75,21.75,0,0,1,42.21,7.18,21.85,21.85,0,0,1-21.55,21.55,7.73,7.73,0,0,0-7.18,7.18,7.73,7.73,0,0,0,7.18,7.18,35.92,35.92,0,0,0,0-71.84c-17.06,0-31.43,12.57-35,28.74H0V409.48H416.66V28.74H308Zm94.29,366.38H14.37v-273H402.29Z"/><path class="cls-1" d="M186.78,14.37a21.85,21.85,0,0,1,21.55,21.55,21.85,21.85,0,0,1-21.55,21.55,7.73,7.73,0,0,0-7.18,7.18,7.73,7.73,0,0,0,7.18,7.18,35.92,35.92,0,0,0,0-71.84,7.73,7.73,0,0,0-7.18,7.18,7.73,7.73,0,0,0,7.18,7.18Z"/><path class="cls-1" d="M229.88,14.37a21.85,21.85,0,0,1,21.55,21.55,21.85,21.85,0,0,1-21.55,21.55,7.73,7.73,0,0,0-7.18,7.18,7.73,7.73,0,0,0,7.18,7.18,35.92,35.92,0,1,0,0-71.84,7.73,7.73,0,0,0-7.18,7.18,7.73,7.73,0,0,0,7.18,7.18Z"/><path class="cls-2" d="M64.65,179.6h158a7.18,7.18,0,0,0,0-14.37h-158a7.18,7.18,0,1,0,0,14.37Z"/><path class="cls-2" d="M352,280.17H244.25a7.18,7.18,0,1,0,0,14.37H352a7.18,7.18,0,0,0,0-14.37Z"/><path class="cls-2" d="M64.65,237.07h71.84a7.18,7.18,0,1,0,0-14.37H64.65a7.18,7.18,0,1,0,0,14.37Z"/><path class="cls-2" d="M352,337.64H280.17a7.18,7.18,0,0,0,0,14.37H352a7.18,7.18,0,1,0,0-14.37Z"/><path class="cls-2" d="M201.15,229.88a7.73,7.73,0,0,0,7.18,7.18H316.09a7.18,7.18,0,0,0,0-14.37H208.33a7.73,7.73,0,0,0-7.18,7.18Z"/><path class="cls-2" d="M177.8,235.27c.9-1.8,1.8-3.59,1.8-5.39s-.9-3.59-1.8-5.39a7,7,0,0,0-9.88,0,9.63,9.63,0,0,0-1.8,5.39c0,1.8.9,3.59,1.8,5.39,1.8,1.8,3.59,1.8,5.39,1.8s2.69-.9,4.49-1.8Z"/><path class="cls-2" d="M93.39,287.35a7.73,7.73,0,0,0,7.18,7.18H208.33a7.18,7.18,0,1,0,0-14.37H100.57a7.72,7.72,0,0,0-7.18,7.18Z"/><path class="cls-2" d="M64.65,294.54c1.8,0,3.59-.9,5.39-1.8.9-1.8,1.8-3.59,1.8-5.39s-.9-3.59-1.8-5.39a7,7,0,0,0-9.88,0c-.9,1.8-1.8,3.59-1.8,5.39s.9,3.59,1.8,5.39a6.86,6.86,0,0,0,4.49,1.8Z"/><path class="cls-2" d="M352,237.07c1.8,0,3.59-.9,5.39-1.8,1.8-1.8,1.8-3.59,1.8-5.39s-.9-3.59-1.8-5.39a7,7,0,0,0-9.88,0,9.63,9.63,0,0,0-1.8,5.39c0,1.8.9,3.59,1.8,5.39a6.86,6.86,0,0,0,4.49,1.8Z"/><path class="cls-2" d="M244.25,337.64H64.65a7.18,7.18,0,1,0,0,14.37h179.6a7.18,7.18,0,0,0,0-14.37Z"/></g></g></svg>