<svg xmlns="http://www.w3.org/2000/svg" viewBox="0 0 409.58 409.48"><defs><style>.cls-1{fill:#333;}.cls-2{fill:#ff6501;}.cls-3{fill:#232323;}</style></defs><title>Fichier 9</title><g id="Calque_2" data-name="Calque 2"><g id="Calque_1-2" data-name="Calque 1"><path class="cls-1" d="M374.19,89.88l-10.94,7.43a190.64,190.64,0,0,1,33,107.43c0,105.57-86,191.53-191.53,191.53a190,190,0,0,1-101.44-29.2l23.32-3.92-2.17-13-48.4,8,23.84,47.68L111.66,400l-8.77-17.65a203.48,203.48,0,0,0,102,27.14c112.9,0,204.74-91.84,204.74-204.74a204.15,204.15,0,0,0-35.4-114.86Z"/><path class="cls-2" d="M204.74,356.64A151.35,151.35,0,0,0,287.61,332l-7.22-11a138.46,138.46,0,0,1-75.64,22.5C128.27,343.43,66,281.21,66,204.74S128.27,66,204.74,66s138.69,62.23,138.69,138.69a138.41,138.41,0,0,1-50.46,107L301.33,322a151.61,151.61,0,0,0,55.21-117.23c0-83.79-68.11-151.9-151.9-151.9s-151.9,68.11-151.9,151.9,68.21,151.9,152,151.9Z"/><path class="cls-1" d="M13.21,204.74c0-105.57,86-191.53,191.53-191.53a190,190,0,0,1,101.44,29.2l-23.32,3.92,2.17,13,48.4-8L309.59,3.61,297.82,9.49l8.77,17.65A203.2,203.2,0,0,0,204.64,0C91.84,0,0,91.84,0,204.74a202.85,202.85,0,0,0,20.23,88.75l11.87-5.78a190.38,190.38,0,0,1-18.88-83Z"/><path class="cls-3" d="M27.45,307.11c2.48,4.23,5.06,8.46,7.84,12.49l10.94-7.43c-2.58-3.82-5.06-7.74-7.33-11.66Z"/><path class="cls-1" d="M236.52,197.31a46.13,46.13,0,1,0-62.33,0,42.44,42.44,0,0,0-26.93,39.52v52.42H263.35V236.83A42.35,42.35,0,0,0,236.52,197.31Zm-64.91-34a33.74,33.74,0,1,1,45.82,31.47l-.93.31c-.21.1-.31.1-.52.21l-1.14.31c-.1,0-.21.1-.31.1l-1.24.31h-.21a35.14,35.14,0,0,1-15.38,0h-.1c-.41-.1-.83-.21-1.34-.31-.1,0-.21-.1-.31-.1l-1.14-.31c-.21-.1-.31-.1-.52-.21s-.62-.21-1-.31A33.85,33.85,0,0,1,171.61,163.36Zm79.46,113.51H159.75v-40a30.21,30.21,0,0,1,30-30.13c1,.41,2.06.72,3.1,1a2.43,2.43,0,0,0,.83.21c.31.1.72.21,1,.31a3.67,3.67,0,0,0,1,.21c.31.1.62.1,1,.21s.83.1,1.14.21.62.1.93.1.83.1,1.24.21.62.1.83.1c.52,0,.93.1,1.44.1h.72c.72,0,1.44.1,2.17.1a15.24,15.24,0,0,0,2.17-.1h.72c.52,0,.93-.1,1.44-.1.31,0,.62-.1.83-.1a5.18,5.18,0,0,0,1.24-.21c.31,0,.62-.1.93-.1s.83-.1,1.14-.21.62-.1,1-.21a3.67,3.67,0,0,1,1-.21c.31-.1.72-.21,1-.31a3.19,3.19,0,0,1,.83-.21c1-.31,2.06-.62,3.1-1a30.21,30.21,0,0,1,30,30.13v40Z"/></g></g></svg>