<svg xmlns="http://www.w3.org/2000/svg" viewBox="0 0 413.08 409.48"><defs><style>.cls-1{fill:#333;}.cls-2{fill:#ff6501;}</style></defs><title>Fichier 8</title><g id="Calque_2" data-name="Calque 2"><g id="Calque_1-2" data-name="Calque 1"><path class="cls-1" d="M374.7,121.89H291.58a35,35,0,0,0-34.08-28.5H221.83l77.39-82a6.16,6.16,0,0,0-.48-9.24,6.16,6.16,0,0,0-9.24.48L207,90.2,123.89,2a7,7,0,0,0-9.24-.48,7,7,0,0,0-.48,9.24l77.39,82.49H156.38a34.82,34.82,0,0,0-34.08,28.5H39.17A39.25,39.25,0,0,0,0,160.9V370.31a39.25,39.25,0,0,0,39.17,39.17H373.9a39.25,39.25,0,0,0,39.17-39.17V161.22a38.41,38.41,0,0,0-38.38-39.33ZM156.54,106.6h101c9.71,0,17.84,6.69,20.86,15.29H135.68c3-8.6,11.31-15.29,20.86-15.29Zm218.16,290H39.33a26.06,26.06,0,0,1-26-26V161.22a26.06,26.06,0,0,1,26-26H374.06a26.06,26.06,0,0,1,26,26V370.62h.48a25.73,25.73,0,0,1-25.8,26Z"/><path class="cls-1" d="M336,155H78.19A39.25,39.25,0,0,0,39,194.18V314.89a39.25,39.25,0,0,0,39.17,39.17H336a39.25,39.25,0,0,0,39.17-39.17V194.18A39.56,39.56,0,0,0,336,155Zm26,160a26.06,26.06,0,0,1-26,26H78.19a26.06,26.06,0,0,1-26-26V194.34a26.06,26.06,0,0,1,26-26H336a26.06,26.06,0,0,1,26,26V315Z"/><path class="cls-2" d="M250.33,369H73.57a6.69,6.69,0,0,0,0,13.38H250.33a6.69,6.69,0,0,0,0-13.38Z"/><path class="cls-2" d="M341.58,369H285.52a6.69,6.69,0,1,0,0,13.38h56.53a6.84,6.84,0,0,0,6.69-6.69c-.48-3.5-3-6.69-7.17-6.69Z"/><circle class="cls-2" cx="299.54" cy="321.1" r="6.69"/><circle class="cls-2" cx="267.69" cy="321.1" r="6.69"/><circle class="cls-2" cx="235.84" cy="321.1" r="6.69"/></g></g></svg>