<?xml version="1.0" encoding="utf-8"?>
<!-- Generator: Adobe Illustrator 22.0.1, SVG Export Plug-In . SVG Version: 6.00 Build 0)  -->
<svg version="1.1" id="Calque_1" xmlns="http://www.w3.org/2000/svg" xmlns:xlink="http://www.w3.org/1999/xlink" x="0px" y="0px"
	 viewBox="0 0 642 627.8" style="enable-background:new 0 0 642 627.8;" xml:space="preserve">
<style type="text/css">
	.st0{fill:#FF6501;}
	.st1{fill:#FF8434;}
	.st2{fill:#FFFFFF;}
	.st3{fill:#3FA9F5;}
	.st4{fill:#333333;}
	.st5{fill:#F2F2F2;}
	.st6{fill:#0071BC;}
	.st7{opacity:0.8;fill:#FFFFFF;}
	.st8{opacity:0.7;fill:#FFFFFF;}
	.st9{fill:#543C2A;}
	.st10{fill:#FDCC9B;}
	.st11{fill:#FCBC85;}
	.st12{fill:#3B2519;}
	.st13{fill:#684B37;}
	.st14{fill:#F7945E;}
	.st15{fill:#F9AA8D;}
	.st16{fill:#F5A860;}
	.st17{fill:#F18B45;}
	.st18{fill:#330C00;}
	.st19{fill:#00B497;}
	.st20{fill:#8FD6E7;}
	.st21{fill:#F6B1CF;}
	.st22{fill:#F283B4;}
	.st23{fill:#3ABDAA;}
	.st24{fill:#401900;}
	.st25{fill:#51362A;}
	.st26{fill:#F7941E;}
	.st27{fill:#F36C21;}
	.st28{fill:#86461B;}
	.st29{fill:#D58E64;}
	.st30{fill:#BF805A;}
	.st31{fill:#744A25;}
	.st32{fill:#573514;}
	.st33{fill:url(#SVGID_1_);}
	.st34{fill:#66C6B9;}
	.st35{fill:#415A6B;}
	.st36{fill:#FFD15C;}
	.st37{fill:url(#SVGID_2_);}
	.st38{fill:url(#SVGID_3_);}
	.st39{fill:url(#SVGID_4_);}
	.st40{fill:url(#SVGID_5_);}
	.st41{fill:url(#SVGID_6_);}
	.st42{fill:#BF4C01;}
	.st43{fill:#232323;}
	.st44{clip-path:url(#SVGID_8_);fill:#333333;}
</style>
<g>
	<rect x="96" y="664.8" class="st0" width="641" height="656"/>
</g>
<g>
	<path class="st1" d="M94.8,1169.5c2.1,0.1,1.5-1.5,1.5-2.6c0-1,0.4-1.5,1.3-1.7c0.8-0.2,1.4,0.2,1.5,1c0.3,4.4,2.5,8.2,4.6,12.8
		c0-4.6,0.2-8.5-0.1-12.3c-0.2-3.4,1.8-4.3,4.5-4.6c1.2-0.1,2.5,0,3.7,0.1c2.1,0.1,4.6,1,3.9-3.1c-0.3-1.9,1.4-1.2,2.4-1
		c0.8,0.2,1.7,0.8,2.1,0c0.6-1.2-0.8-0.9-1.3-1.4c-1.3-1.2-0.7-1.9,0.7-2.3c2.4-0.7,4.8-1,7-2.2c0.8-0.4,1.8-0.6,1.3-1.8
		c-0.8-2.2,0.7-2.3,2.1-2.5c1.9-0.3,3.7-0.7,5.6-1.1c0.7-0.1,1.7,0.5,1.8-0.8c0.2-1.2-0.5-1.6-1.5-1.8c-0.7-0.1-1.8,0.1-1.5-1.2
		c0.2-1,1.2-0.9,2-0.9c2.3,0.1,4.5,0.7,6.9-0.7c1.7-1,1.8-1.7,1.9-3.2c0.2-11.7,0.4-23.5,0.6-35.2c0.1-3.8,0.8-7.5,2.1-11.1
		c0.2-0.7,0.6-1.4,1.2-1.5c2.7-0.4,2.2-2.1,1.7-3.9c-0.2-0.5-0.3-1.1-0.2-1.7c0.2-1.6-1-4.2,2-4c2.1,0.1,3.7,2.1,3.5,3.9
		c-0.5,4,0.7,5.4,4.6,5.3c3.7-0.1,4.1,3.6,5.3,6c0.2,0.4,0.1,1.2,0.3,1.3c4.5,1.4,2.6,5.2,2.7,7.9c0.1,11.8-0.1,23.7-0.2,35.5
		c0,1.3-0.3,2.5,1.4,3.4c2,1.1-1.4,0.7-0.7,1.8c0.2,0.5,0.7,0.3,1.1,0.4c6.1,1.1,6.7,2.1,6,8.1c-0.2,1.7,0,3.4,0,5.3
		c2.1-0.9,2.6-2.5,2.6-4.4c0-1.7,0.1-3.4,0.2-5.1c0-1.3,0.4-1.9,1.9-2.1c3-0.3,5.3-3.4,5.3-6.6c0.1-9.2,0.3-18.4,0.3-27.7
		c0-2.5,0.7-3.8,3-4.5c1.7-0.5,3.4-2,5-1.8c4.5,0.4,4.7-2,4.2-5.3c-0.1-0.7,0-1.4,0-2c0.2-5.9-1.2-5.6,5.4-7
		c1.4-0.3,1.8-2.2,2.9-2.1c1.8,0.3,3.5,0.5,5.3,0.3c2.2-0.2,4.5,0.3,6.8-0.2c0.7-0.1,1.2-0.3,1.7,0.5c1.6,2.7,6.5,3.7,8.7,1.7
		c2.3-2,5.4-3.8,6.4-6.4c2-5.4,6.1-3.4,9.5-3.7c3.3-0.3,6.7-0.5,10,0.3c2.4,0.6,6.4-0.7,5.9,4.3c0,0.2,0.3,0.4,0.4,0.5
		c3.5,4.1,7,8.2,11.3,12.1c0-1.6,0.1-3.2,0-4.9c-0.6-7.2,0.8-14.3,1.7-21.4c0.1-0.7,0-1.8,0.7-1.7c3.8,0.2,2.5-2.8,3-4.8
		c0.7-2.9,1.2-5.7,2.9-8.5c1.9-3.1,3.1-7,3-11.1c1.2,3,1,6.2,2.5,9.1c2.4,4.7,4.5,9.6,4,15.1c0,0.4,0.3,1.1,0.5,1.1
		c3.8,0.2,2.9,3.4,3.4,5.5c1.6,6.9,0.9,14.1,1.4,21.1c0.8,12.8,2.4,25.6,1.8,38.4c-0.1,2.3,1.6,2.3,2.9,2.4c3.4,0.4,4.6,2.1,4.1,5.5
		c-0.2,1.1,0.1,2.3-0.1,3.4c-0.9,7.5,1.1,14.4,4.6,20.9c0.6,1,1.5,2.1,1,3.5c-0.2,0.6,0,1.5,0.5,1.3c2.9-1,2.5,1.4,3.5,2.9
		c0-2.8,0.2-5.5,0-8.3c-0.2-2.5,0.8-3.3,3-3.1c0.3,0,0.7,0,1,0c2.3-0.1,5.2,0.6,6.9-0.5c1.8-1.1,0.5-4.2,0.6-6.4
		c0.1-1.3,0.6-1.8,1.8-1.9c1.4-0.1,2.9-0.4,4.3-0.3c4.4,0.1,7.4-2.1,9.1-6.1c0.6-1.4,1.7-0.8,2.6-0.8c1.1,0,2.6-0.6,3.1,1.2
		c0.2,0.7,0,1.6,1.1,2.1c0-3.2,1-6.2,1-9.4c0-22.1,0.2-44.2,0.2-66.3c0-2.6,0.6-3.8,3.3-3.5c5.1,0.5,10.2-0.8,15.3-0.6
		c1.5,0,3.3,0.6,4.4-1.5c0.4-0.8,2.4-0.7,2.8,0.2c1.8,4.6,6.8,4.7,9.9,7.3c0.9,0.7,2.5,1.3,3.8,1.8c3.1,1.1,4,3.4,3.9,6.6
		c-0.1,9.1,0.1,18.2-0.1,27.3c0,2.3,0.7,2.9,2.8,2.8c3.6-0.3,7.2-0.4,10.7-0.4c4.5-0.1,8.9,4.4,9,8.9c0,4.3,0.1,8.7,0,13
		c0,1.7,0.6,2.2,2.2,2.1c6-0.6,12.1-0.4,18.1-0.1c1.8,0.1,2.3-0.5,2.3-2.3c-0.1-7.3,0.1-14.6-0.1-21.9c-0.1-2.6,0.8-3.6,3.2-3.2
		c2.4,0.4,3-0.5,2.9-2.9c-0.3-8.8-0.2-17.5-0.5-26.3c-0.1-2.7,0.6-3.2,3.1-3c8.8,0.6,17.6,1,26.5,1.3c1.7,0.1,2.1,0.8,2.1,2.3
		c0,8,0.5,16,0,23.9c-0.4,5.4,1.4,10.6,0.3,16c3.8,6.5,1.1,13.9,2.3,20.8c0.6,3.7,1.7,7.5,1.7,11.3c0,0.8-0.1,1.8,1.1,1.8
		c1.1,0,0.9-1,1-1.8c0.1-0.9,0.3-1.8,0.6-2.6c0.4-1.1,1.3-1.6,2.3-1.5c0.9,0.1,1.7,0.6,1.9,1.6c0.3,1.3,0.5,2.6,0.7,3.9
		c0.1,1.2,0.9,2.3,2.5,2.3c2-0.1,1.2-1.6,1.2-2.5c0.1-7.5,0-15,0-22.6c0-0.9,0-1.8-0.6-2.6c-0.5-0.6-0.7-1.2,0.1-1.7
		c3.4-2.3,3.8-5.9,3.9-9.5c0.1-8.5,0.1-17.1-0.1-25.6c-0.2-5.1-0.1-10.3-1.2-15.4c-0.5-2.4,0.4-5,0.7-7.8c1.5,0.9,0.7,2.4,1.6,3.2
		c1.3-3.7,2.7-7.4,4-11.1c0.7-2,1.8-3.1,4-1.8c0.2,0.1,0.4,0.3,0.6,0.3c1.8-0.1,3.9,2.1,5.3,0.1c1.2-1.8,0.4-4.2-0.5-6.2
		c-0.2-0.5-0.9-0.8-0.6-1.4c3.3-6.9,0.8-14.3,2-21.4c0.2-1-0.2-2.2,1.1-3.8c-0.5,5.7,0.1,10.6,0.1,15.4c0,4.3,0.9,8.6,0.2,12.9
		c-0.3,2,1.6,3.7,2.4,3.8c2.4,0.3,1.9,1.9,1.9,3.2c0.1,3,0,5.9,0,8.9c0,3.6,1.5,5.4,4.2,5.1c1.5-0.2,1.5-0.2,2.8-3.2
		c-0.5,2.4,2.1,4,1.4,6.6c-0.3,1.3,1.3,1.3,2.2,1.6c1.6,0.6,4.3-0.2,4.8,1.3c0.8,2,0.6,4.6,0.1,6.7c-0.7,3.1-1.7,6.6-0.6,9
		c1.9,3.9-0.8,6.9-0.8,10.3c0.3,11.6,0,23.2,0.3,34.9c0.1,4.9,0.6,9.7,0.6,14.6c0,0.6-0.2,1.7,0.7,1.6c3.3-0.2,2.7,2.3,2.9,4.2
		c0.3,4.8,0.6,9.5,0.7,14.3c0,1.9,0.4,3,2.6,2.8c1.4-0.1,3.1-0.7,3.8,1.6c0.2,0.8,1.4,0.5,2.1,0.4c1.3-0.2,0.9-1.4,0.9-2.2
		c-0.1-10.6,0-21.2-0.4-31.8c-0.1-3.2,1-3.8,3.8-3.7c4.8,0.2,9.7-0.7,14.6,0.1c1.8,0.3,2.8-0.2,2.7-2.5c-0.4-15.6,0.2-31.2-0.8-46.8
		c-1.4-19.8,0.3-39.6-0.3-59.4c0-1.6,0-2.7,2-3.1c1.4-0.3,3-1.6,3-3.2c0-2.8,1.8-3.5,3.8-3.5c2.4-0.1,3-1.4,3.6-3.5
		c1.3-4.6,1.4-9.5,3.1-14.1c0.9-2.4,0-5.4,0.1-8.2c0.2-7.5,0-15,0-22.4c0-0.3,0.2-0.5,0.3-0.8c0.3,0,0.6,0,0.9,0c0,2.7,0,5.3,0,8
		c0,5.8,0.2,11.5,0.1,17.3c0,7.5,2.4,14.3,4.6,21.3c0.3,1,0.3,2.3,1.6,2.3c4.5-0.2,4.9,3.2,5.6,6.3c0.2,0.8,0.1,1.7,1.2,1.7
		c2.8-0.2,2.9,1.7,2.9,3.7c0,1.4,0.2,2.7,0.2,4.1c0.7,41.3,1.4,82.6,2.1,124c0,0.8,0.1,1.6,0.1,2.4c-0.2,2.9,0.6,4.6,3.9,3.9
		c0.4-0.1,1.3,0,1.3,0c0.1,3.2,4.5,3.4,4.4,6.7c0,4,0.1,8,0.3,12c0,1.5,0,3.5,1.9,3.4c1.7-0.1,1.3-2.1,1.3-3.4
		c-0.1-17-0.2-33.9-0.3-50.9c0-5.9,1-6.9,6.8-6.7c7.9,0.2,15.9,0.3,23.8,0.7c2.5,0.1,3.2-0.7,2.9-3c-0.1-0.9,0.1-1.8,0-2.7
		c-0.4-2.7,0.6-4.2,3.4-3.6c1.3,0.3,1-0.5,1.3-1.1c1.5-2.5,2.3-5.3,2.9-8.1c3.6,1.5,4.1,4.6,5.1,7.6c0.5,1.4,0.7,3.7,3.3,3.4
		c0.9-0.1,0.6,1,0.7,1.6c0.3,4.5,1,9.1,0.8,13.6c-0.3,5.9,1.9,11.2,2.8,16.8c0.8,4.9,0.7,9.8,0.3,14.6c-0.3,3.8,2.2,5.1,4.5,6.4
		c1.4,0.8,1.7,1.4,1.7,2.7c0,5.9,0.3,11.8,0.2,17.8c0,2.4,0.4,3.6,3.2,3.7c4.2,0.2,4.1,0.5,4.1-3.9c-0.4-30.4-0.6-60.8-1.2-91.2
		c-0.2-8.8,3.1-17.3,2.1-26.1c-0.2-1.4,0.8-2.1,2.1-1.9c1.8,0.2,3.4-0.7,5.2-0.8c2.5-0.1,1.4-2.5,1.3-3.7c-0.8-6.6,0-13.2-0.2-19.8
		c0-1.9,0.1-2.8,2.6-2.9c4.8-0.2,9.5-0.6,14.4,0.1c2.9,0.5,6.6-0.3,9.7-1.1c2.8-0.7,4.9,1.5,7.4,1.4c0.6,0,0.7,0.7,0.7,1.3
		c0,8.5,0,17,0.1,25.5c0,2.5,0.4,5,0.4,7.5c0,2.1,0.2,4.2-1,6.2c-1.3,2.2,0.5,4.6,0.3,7.2c-0.6,6.7-0.3,13.4-0.3,20.2
		c0,0.5,0.1,1.5,0.4,1.6c3.6,1.3,2.3,4.4,2.3,6.8c0.2,7.7,0.1,15.3,0.5,23.1c3.2-5.3,6.4-10.2,13.3-9.6c0,31.7,0,63.3,0,95
		c-1.2,0.6-2.4,0.3-3.6,0.3c-212.6,0-425.3,0-637.9,0c-1.2,0-2.5,0.3-3.6-0.3C94.8,1219.1,94.8,1194.3,94.8,1169.5z"/>
</g>
<g>
	<rect x="96.7" y="1283.3" class="st2" width="641.4" height="526"/>
	<path d="M737.6,1283.8v525H97.2v-525H737.6 M738.6,1282.8H96.2v527h642.4V1282.8L738.6,1282.8z"/>
</g>
<circle class="st2" cx="1028.5" cy="487.3" r="85.5"/>
<circle class="st2" cx="1034.5" cy="851.3" r="85.5"/>
<circle class="st2" cx="1037.5" cy="1033.3" r="85.5"/>
<g>
	<rect x="3906.7" y="318.3" class="st2" width="641.4" height="1141"/>
	<path d="M4547.6,318.8v1140h-640.4v-1140H4547.6 M4548.6,317.8h-642.4v1142h642.4V317.8L4548.6,317.8z"/>
</g>
<g>
	<rect x="4701" y="349.3" class="st2" width="1919.5" height="1079"/>
	<path d="M6620,349.8v1078H4701.5v-1078H6620 M6621,348.8H4700.5v1080H6621V348.8L6621,348.8z"/>
</g>
<g>
	<rect x="3921.5" y="1181.3" width="299.2" height="263"/>
	<path d="M4220.2,1181.8v262H3922v-262H4220.2 M4221.2,1180.8H3921v264h300.2V1180.8L4221.2,1180.8z"/>
</g>
<g>
	<rect x="4233.3" y="1181.3" width="299.2" height="263"/>
	<path d="M4532,1181.8v262h-298.2v-262H4532 M4533,1180.8h-300.2v264H4533V1180.8L4533,1180.8z"/>
</g>
<g>
	<rect x="3921.5" y="904.3" width="299.2" height="263"/>
	<path d="M4220.2,904.8v262H3922v-262H4220.2 M4221.2,903.8H3921v264h300.2V903.8L4221.2,903.8z"/>
</g>
<g>
	<rect x="4233.3" y="904.3" width="299.2" height="263"/>
	<path d="M4532,904.8v262h-298.2v-262H4532 M4533,903.8h-300.2v264H4533V903.8L4533,903.8z"/>
</g>
<g>
	<rect x="3921.5" y="627.3" width="299.2" height="263"/>
	<path d="M4220.2,627.8v262H3922v-262H4220.2 M4221.2,626.8H3921v264h300.2V626.8L4221.2,626.8z"/>
</g>
<g>
	<rect x="4233.3" y="627.3" width="299.2" height="263"/>
	<path d="M4532,627.8v262h-298.2v-262H4532 M4533,626.8h-300.2v264H4533V626.8L4533,626.8z"/>
</g>
<g>
	<rect x="5059.7" y="373.3" class="st3" width="1203.8" height="1032"/>
	<g>
		<path d="M6263,373.8v1031H5060.2v-1031H6263 M6264,372.8H5059.2v1033H6264V372.8L6264,372.8z"/>
	</g>
</g>
<g>
	<rect x="4702" y="1445.3" class="st2" width="1919.5" height="1079"/>
	<path d="M6621,1445.8v1078H4702.5v-1078H6621 M6622,1444.8H4701.5v1080H6622V1444.8L6622,1444.8z"/>
</g>
<g>
	<rect x="5060.7" y="1469.3" class="st3" width="1540.8" height="1032"/>
	<g>
		<path d="M6601,1469.8v1031H5061.2v-1031H6601 M6602,1468.8H5060.2v1033H6602V1468.8L6602,1468.8z"/>
	</g>
</g>
<g>
	<rect x="3231.7" y="318.3" class="st2" width="641.4" height="1141"/>
	<path d="M3872.6,318.8v1140h-640.4v-1140H3872.6 M3873.6,317.8h-642.4v1142h642.4V317.8L3873.6,317.8z"/>
</g>
<g>
	<rect x="3268.5" y="528.3" width="567" height="900"/>
	<path d="M3835,528.8v899h-566v-899H3835 M3836,527.8h-568v901h568V527.8L3836,527.8z"/>
</g>
<g>
	<rect x="3921.5" y="496.3" width="611" height="118"/>
	<path d="M4532,496.8v117h-610v-117H4532 M4533,495.8h-612v119h612V495.8L4533,495.8z"/>
</g>
<g>
	<rect x="4737.2" y="1469.3" width="299.2" height="199.5"/>
	<path d="M5035.9,1469.8v198.5h-298.2v-198.5H5035.9 M5036.9,1468.8h-300.2v200.5h300.2V1468.8L5036.9,1468.8z"/>
</g>
<g>
	<rect x="4737.5" y="1677.4" width="299.2" height="199.5"/>
	<path d="M5036.2,1677.9v198.5H4738v-198.5H5036.2 M5037.2,1676.9H4737v200.5h300.2V1676.9L5037.2,1676.9z"/>
</g>
<g>
	<rect x="4737.8" y="1885.5" width="299.2" height="199.5"/>
	<path d="M5036.5,1886v198.5h-298.2V1886H5036.5 M5037.5,1885h-300.2v200.5h300.2V1885L5037.5,1885z"/>
</g>
<g>
	<rect x="4738.1" y="2093.6" width="299.2" height="199.5"/>
	<path d="M5036.8,2094.1v198.5h-298.2v-198.5H5036.8 M5037.8,2093.1h-300.2v200.5h300.2V2093.1L5037.8,2093.1z"/>
</g>
<g>
	<rect x="4738.5" y="2301.8" width="299.2" height="199.5"/>
	<path d="M5037.1,2302.3v198.5H4739v-198.5H5037.1 M5038.1,2301.3H4738v200.5h300.2V2301.3L5038.1,2301.3z"/>
</g>
<g>
	<rect x="6661" y="1446.3" class="st2" width="1919.5" height="1079"/>
	<path d="M8580,1446.8v1078H6661.5v-1078H8580 M8581,1445.8H6660.5v1080H8581V1445.8L8581,1445.8z"/>
</g>
<g>
	<rect x="7816.5" y="1470.3" class="st3" width="744" height="1032"/>
	<path d="M8560,1470.8v1031h-743v-1031H8560 M8561,1469.8h-745v1033h745V1469.8L8561,1469.8z"/>
</g>
<g>
	<rect x="7008.5" y="1470.3" class="st4" width="770" height="1032"/>
	<path d="M7778,1470.8v1031h-769v-1031H7778 M7779,1469.8h-771v1033h771V1469.8L7779,1469.8z"/>
</g>
<g>
	<rect x="6695.7" y="1469.8" class="st4" width="551.3" height="200.5"/>
</g>
<g>
	<rect x="6696.5" y="1678.4" width="299.2" height="199.5"/>
	<path d="M6995.2,1678.9v198.5H6697v-198.5H6995.2 M6996.2,1677.9H6696v200.5h300.2V1677.9L6996.2,1677.9z"/>
</g>
<g>
	<rect x="6696.8" y="1886.5" width="299.2" height="199.5"/>
	<path d="M6995.5,1887v198.5h-298.2V1887H6995.5 M6996.5,1886h-300.2v200.5h300.2V1886L6996.5,1886z"/>
</g>
<g>
	<rect x="6697.1" y="2094.6" width="299.2" height="199.5"/>
	<path d="M6995.8,2095.1v198.5h-298.2v-198.5H6995.8 M6996.8,2094.1h-300.2v200.5h300.2V2094.1L6996.8,2094.1z"/>
</g>
<g>
	<rect x="6697.5" y="2302.8" width="299.2" height="199.5"/>
	<path d="M6996.1,2303.3v198.5H6698v-198.5H6996.1 M6997.1,2302.3H6697v200.5h300.2V2302.3L6997.1,2302.3z"/>
</g>
<g>
	<rect x="2814" y="-1217.2" class="st0" width="691" height="740"/>
</g>
<g>
	<rect x="3198" y="-1603.2" class="st5" width="691" height="740"/>
</g>
<g>
	<rect x="4617" y="-932.2" class="st0" width="691" height="740"/>
</g>
<g>
	<rect x="4832" y="-1185.2" class="st6" width="691" height="740"/>
</g>
<g>
	<rect x="5116" y="-1489.2" class="st2" width="691" height="740"/>
</g>
<path class="st7" d="M739,1229.8c-214.7,44.4-428.8,46.4-642,0v206h642V1229.8z"/>
<path class="st8" d="M739,1358.8H96v-116.1c320,43.1,453-114.9,642-32.9L739,1358.8z"/>
<path class="st8" d="M96,1381.8l643-4v-116.1c-300.4,2.1-351-104.9-643-61.9V1381.8z"/>
<path class="st8" d="M97,1381.8l643-4v-116.1c-206.2,0.7-234-172.9-643-4.9V1381.8z"/>
<g>
	<path class="st9" d="M1035.1,825.3v84.3h38.7c0,0,7.3-38.1,7.2-61C1080.7,825.6,1035.1,825.3,1035.1,825.3z"/>
	<path class="st9" d="M1035.1,825.3v84.3h-38.7c0,0-7.3-38.1-7.2-61C989.4,825.6,1035.1,825.3,1035.1,825.3z"/>
	<g>
		<g>
			<rect x="1025.6" y="881.3" class="st10" width="18.9" height="21.1"/>
			<path class="st11" d="M1025.6,883.8c0,0,7.9,5.1,18.9,3.9v-6.4h-18.9V883.8z"/>
			<ellipse class="st11" cx="998.5" cy="848.5" rx="9.2" ry="10.5"/>
			<ellipse class="st11" cx="1071.7" cy="848.5" rx="9.2" ry="10.5"/>
			<path class="st10" d="M1071.6,828.5c0-15.5-11.3-26.8-36.6-26.8c-25.3,0-36.6,11.3-36.6,26.8s-2.6,56.2,36.6,56.2
				C1074.3,884.7,1071.6,844,1071.6,828.5z"/>
			<g>
				<g>
					<ellipse class="st12" cx="1017.3" cy="846" rx="4" ry="4.3"/>
					<circle class="st2" cx="1015.5" cy="844.1" r="1.2"/>
				</g>
				<path class="st13" d="M1010.9,836.7c1.9,0.7,4.9-2.4,11.8,0.3c1.3,0.5,2-4.3-5.4-4.3C1010.9,832.7,1009.8,836.2,1010.9,836.7z"
					/>
				<g>
					<ellipse class="st12" cx="1053.4" cy="846" rx="4" ry="4.3"/>
					<circle class="st2" cx="1051.7" cy="844.1" r="1.2"/>
				</g>
				<path class="st13" d="M1059.2,836.7c-1.9,0.7-4.9-2.4-11.8,0.3c-1.3,0.5-2-4.3,5.4-4.3C1059.2,832.7,1060.4,836.2,1059.2,836.7z
					"/>
			</g>
			<path class="st11" d="M1035.1,861.3c-3.9,0-6.3-2.9-6.3-1.5c0,1.4,1.1,4.1,6.3,4.1c5.1,0,6.3-2.7,6.3-4.1
				C1041.3,858.4,1039,861.3,1035.1,861.3z"/>
			<path class="st11" d="M1035.1,874.3c-1.4,0-2.2-1-2.2-0.5c0,0.5,0.4,1.4,2.2,1.4c1.8,0,2.2-0.9,2.2-1.4
				C1037.2,873.3,1036.4,874.3,1035.1,874.3z"/>
			<path class="st14" d="M1035.1,870.7c-6.2,0-9.9-2.5-9.9-1.9s1.8,3.2,9.9,3.2c8.1,0,9.9-2.5,9.9-3.2
				C1045,868.2,1041.3,870.7,1035.1,870.7z"/>
		</g>
		<circle class="st15" cx="1012.2" cy="859.9" r="5.4"/>
		<circle class="st15" cx="1058.6" cy="859.9" r="5.4"/>
	</g>
	<path class="st16" d="M1035.1,889.8v23.8h-41.3C993.8,903.9,1013.4,889.8,1035.1,889.8z"/>
	<path class="st16" d="M1035.1,889.8v23.8h41.3C1076.4,903.9,1056.8,889.8,1035.1,889.8z"/>
	<path class="st17" d="M1027.2,890.4c-0.1,0-0.2,0-0.4,0.1c-2.5,0.4-5,1-7.4,1.7l15.6,21.4v-11.9l-7.1-11.4
		C1027.7,890.3,1027.5,890.3,1027.2,890.4z"/>
	<path class="st17" d="M1042.9,890.4c0.1,0,0.2,0,0.4,0.1c2.5,0.4,5,1,7.4,1.7l-15.6,21.4v-11.9l7.1-11.4
		C1042.4,890.3,1042.7,890.3,1042.9,890.4z"/>
	<path class="st13" d="M1035.1,782.8c-42.6,0-47.6,30.1-45.8,65.7c1.8,35.6,32,53.1,32,53.1s-33.8-48.4-5.7-90.8c0,0-5.3,9.1-5,16.7
		c0,0,6.6-2.3,24.5-2.3c17.9,0,24.5,2.3,24.5,2.3c0.3-7.6-5-16.7-5-16.7c28.1,42.4-5.7,90.8-5.7,90.8s30.2-17.6,32-53.1
		C1082.7,813,1077.7,782.8,1035.1,782.8z"/>
	<path class="st10" d="M1025.6,890.6l9.4,15.7l9.4-15.7C1044.5,890.6,1034.7,887,1025.6,890.6z"/>
</g>
<g>
	<path class="st18" d="M4804.5,392.3v160c0,0-90.8,9.4-90.8-34.9c0,0,24.4,3.1,19.4-17.3c-6.3-25.8-2.8-67.6,0-90.4
		C4735.8,386.9,4804.5,392.3,4804.5,392.3z"/>
	<path class="st18" d="M4804.2,392.3v160c0,0,90.8,9.4,90.8-34.9c0,0-24.4,3.1-19.4-17.3c6.3-25.8,2.8-67.6,0-90.4
		C4872.8,386.9,4804.2,392.3,4804.2,392.3z"/>
	<path class="st19" d="M4806.1,528.5v-23.3c0,0,37-1.1,37,21.3L4806.1,528.5z"/>
	<path class="st19" d="M4802.9,528.5v-23.3c0,0-37-1.1-37,21.3L4802.9,528.5z"/>
	<g>
		<g>
			<rect x="4789.8" y="505.2" class="st10" width="29.4" height="32.9"/>
			<path class="st11" d="M4789.8,509.1c0,0,12.4,7.9,29.4,6.1v-9.9h-29.4V509.1z"/>
			<ellipse class="st11" cx="4747.4" cy="454.1" rx="14.3" ry="16.4"/>
			<ellipse class="st11" cx="4861.6" cy="454.1" rx="14.3" ry="16.4"/>
			<path class="st10" d="M4861.5,422.9c0-24.1-17.6-41.7-57-41.7c-39.4,0-57,17.6-57,41.7c0,24.1-4.1,87.6,57,87.6
				C4865.6,510.5,4861.5,447,4861.5,422.9z"/>
			<g>
				<g>
					<ellipse class="st12" cx="4776.7" cy="450.2" rx="6.2" ry="6.8"/>
					<circle class="st2" cx="4774" cy="447.2" r="1.8"/>
				</g>
				<path class="st13" d="M4766.8,435.7c2.9,1.1,7.6-3.8,18.3,0.5c2,0.8,3.1-6.7-8.4-6.7C4766.8,429.5,4765.1,435,4766.8,435.7z"/>
				<g>
					<ellipse class="st12" cx="4833" cy="450.2" rx="6.2" ry="6.8"/>
					<circle class="st2" cx="4830.3" cy="447.2" r="1.8"/>
				</g>
				<path class="st13" d="M4842.1,435.7c-2.9,1.1-7.6-3.8-18.3,0.5c-2,0.8-3.1-6.7,8.4-6.7C4842.1,429.5,4843.9,435,4842.1,435.7z"
					/>
			</g>
			<path class="st11" d="M4804.5,474c-6.1,0-9.8-4.6-9.8-2.4c0,2.2,1.8,6.4,9.8,6.4c8,0,9.8-4.2,9.8-6.4
				C4814.3,469.5,4810.6,474,4804.5,474z"/>
			<path class="st11" d="M4804.5,494.3c-2.1,0-3.4-1.6-3.4-0.8s0.6,2.2,3.4,2.2s3.4-1.4,3.4-2.2S4806.6,494.3,4804.5,494.3z"/>
			<path class="st14" d="M4804.5,488.7c-9.7,0-15.5-3.9-15.5-2.9c0,1,2.8,4.9,15.5,4.9c12.7,0,15.5-3.9,15.5-4.9
				S4814.2,488.7,4804.5,488.7z"/>
		</g>
		<circle class="st15" cx="4768.8" cy="471.8" r="8.4"/>
		<circle class="st15" cx="4841.2" cy="471.8" r="8.4"/>
	</g>
	<path class="st20" d="M4804.5,518.4v37h-64.4C4740.1,540.5,4770.7,518.4,4804.5,518.4z"/>
	<path class="st20" d="M4804.5,518.4v37h64.4C4868.9,540.5,4838.3,518.4,4804.5,518.4z"/>
	<path class="st21" d="M4804.5,553.8v-35.4c-9.4,0-18.6,1.8-26.9,4.5L4804.5,553.8z"/>
	<path class="st21" d="M4804.5,553.8v-35.4c9.4,0,18.6,1.8,26.9,4.5L4804.5,553.8z"/>
	<path class="st22" d="M4804.5,518.4c-6.8,0-13.5,0.9-19.9,2.5c0.9,5.5,4.6,16.8,19.9,16.8c15.3,0,19-11.3,19.9-16.8
		C4818,519.4,4811.3,518.4,4804.5,518.4z"/>
	<path class="st10" d="M4789.8,519.7c0,0,0,13.2,14.7,13.2c14.7,0,14.7-13.2,14.7-13.2S4803.9,514.2,4789.8,519.7z"/>
	<path class="st23" d="M4782,521.2c0.4-2.9-17.1-0.8-17,7.3c0.1,8.1,19.4,14.3,24.7,17.2c5.3,2.9,14.7,9.7,14.7,9.7
		s1.8-6.8-6.5-12.1C4789.7,538.1,4781.4,525,4782,521.2z"/>
	<path class="st23" d="M4826.8,521.2c-0.4-2.9,17.1-0.8,17,7.3c-0.1,8.1-19.4,14.3-24.7,17.2c-5.3,2.9-14.7,9.7-14.7,9.7
		s-1.8-6.8,6.5-12.1C4819,538.1,4827.4,525,4826.8,521.2z"/>
	<path class="st24" d="M4804.5,348.8c-66.1,0-75,57.7-75,100.3c0,42.6,22,67.3,39.2,74.2c0,0-27.5-48.7-14-93.8
		c11.1-36.9,49.7-26,49.7-26s38.6-10.9,49.7,26c13.5,45.1-14,93.8-14,93.8c17.2-6.9,39.2-31.6,39.2-74.2
		C4879.4,406.5,4870.6,348.8,4804.5,348.8z"/>
	<path class="st24" d="M4826.9,413.7c0,0-24.8,12.4-46.7,9.9c-21.9-2.5-30.3,20.2-29,35.3l-7.3-33.5l13.2-26.5l37.7-19.4l35.6,1.6
		l16.9,14.7l14.3,17.8l10.1,11.7l-4.9,36.1l-10.3,12.3C4856.5,473.9,4865.8,427.5,4826.9,413.7z"/>
</g>
<g>
	<path class="st18" d="M1028.9,442.7v102.6c0,0-58.3,6-58.3-22.4c0,0,15.6,2,12.4-11.1c-4.1-16.5-1.8-43.3,0-58
		C984.9,439.3,1028.9,442.7,1028.9,442.7z"/>
	<path class="st18" d="M1028.7,442.7v102.6c0,0,58.3,6,58.3-22.4c0,0-15.6,2-12.4-11.1c4.1-16.5,1.8-43.3,0-58
		C1072.8,439.3,1028.7,442.7,1028.7,442.7z"/>
	<path class="st19" d="M1029.9,530.1v-15c0,0,23.7-0.7,23.7,13.6L1029.9,530.1z"/>
	<path class="st19" d="M1027.9,530.1v-15c0,0-23.7-0.7-23.7,13.6L1027.9,530.1z"/>
	<g>
		<g>
			<rect x="1019.5" y="515.1" class="st10" width="18.9" height="21.1"/>
			<path class="st11" d="M1019.5,517.6c0,0,7.9,5.1,18.9,3.9v-6.4h-18.9V517.6z"/>
			<ellipse class="st11" cx="992.3" cy="482.4" rx="9.2" ry="10.5"/>
			<ellipse class="st11" cx="1065.5" cy="482.4" rx="9.2" ry="10.5"/>
			<path class="st10" d="M1065.5,462.3c0-15.5-11.3-26.8-36.6-26.8c-25.3,0-36.6,11.3-36.6,26.8c0,15.5-2.6,56.2,36.6,56.2
				C1068.1,518.5,1065.5,477.8,1065.5,462.3z"/>
			<g>
				<g>
					<ellipse class="st12" cx="1011.1" cy="479.9" rx="4" ry="4.3"/>
					<circle class="st2" cx="1009.4" cy="477.9" r="1.2"/>
				</g>
				<path class="st13" d="M1004.8,470.5c1.9,0.7,4.9-2.4,11.8,0.3c1.3,0.5,2-4.3-5.4-4.3C1004.8,466.5,1003.6,470.1,1004.8,470.5z"
					/>
				<g>
					<ellipse class="st12" cx="1047.2" cy="479.9" rx="4" ry="4.3"/>
					<circle class="st2" cx="1045.5" cy="477.9" r="1.2"/>
				</g>
				<path class="st13" d="M1053.1,470.5c-1.9,0.7-4.9-2.4-11.8,0.3c-1.3,0.5-2-4.3,5.4-4.3C1053.1,466.5,1054.2,470.1,1053.1,470.5z
					"/>
			</g>
			<path class="st11" d="M1028.9,495.1c-3.9,0-6.3-2.9-6.3-1.5c0,1.4,1.1,4.1,6.3,4.1c5.1,0,6.3-2.7,6.3-4.1
				S1032.8,495.1,1028.9,495.1z"/>
			<path class="st11" d="M1028.9,508.1c-1.4,0-2.2-1-2.2-0.5c0,0.5,0.4,1.4,2.2,1.4c1.8,0,2.2-0.9,2.2-1.4
				C1031.1,507.1,1030.3,508.1,1028.9,508.1z"/>
			<path class="st14" d="M1028.9,504.5c-6.2,0-9.9-2.5-9.9-1.9c0,0.6,1.8,3.2,9.9,3.2c8.1,0,9.9-2.5,9.9-3.2
				S1035.1,504.5,1028.9,504.5z"/>
		</g>
		<circle class="st15" cx="1006" cy="493.7" r="5.4"/>
		<circle class="st15" cx="1052.5" cy="493.7" r="5.4"/>
	</g>
	<path class="st20" d="M1028.9,523.6v23.8h-41.3C987.6,537.7,1007.2,523.6,1028.9,523.6z"/>
	<path class="st20" d="M1028.9,523.6v23.8h41.3C1070.2,537.7,1050.6,523.6,1028.9,523.6z"/>
	<path class="st21" d="M1028.9,546.3v-22.7c-6,0-11.9,1.1-17.2,2.9L1028.9,546.3z"/>
	<path class="st21" d="M1028.9,546.3v-22.7c6,0,11.9,1.1,17.2,2.9L1028.9,546.3z"/>
	<path class="st22" d="M1028.9,523.6c-4.4,0-8.7,0.6-12.8,1.6c0.6,3.5,3,10.8,12.8,10.8c9.8,0,12.2-7.2,12.8-10.8
		C1037.6,524.2,1033.3,523.6,1028.9,523.6z"/>
	<path class="st10" d="M1019.5,524.4c0,0,0,8.5,9.4,8.5c9.4,0,9.4-8.5,9.4-8.5S1028.6,520.9,1019.5,524.4z"/>
	<path class="st23" d="M1014.5,525.4c0.3-1.8-11-0.5-10.9,4.7c0.1,5.2,12.4,9.2,15.8,11c3.4,1.9,9.4,6.2,9.4,6.2s1.1-4.4-4.1-7.7
		C1019.4,536.2,1014.1,527.8,1014.5,525.4z"/>
	<path class="st23" d="M1043.2,525.4c-0.3-1.8,11-0.5,10.9,4.7c-0.1,5.2-12.4,9.2-15.8,11c-3.4,1.9-9.4,6.2-9.4,6.2
		s-1.1-4.4,4.1-7.7C1038.3,536.2,1043.6,527.8,1043.2,525.4z"/>
	<path class="st24" d="M1028.9,414.8c-42.4,0-48.1,37-48.1,64.3c0,27.3,14.1,43.1,25.2,47.6c0,0-17.6-31.2-9-60.2
		c7.1-23.7,31.9-16.7,31.9-16.7s24.8-7,31.9,16.7c8.7,28.9-9,60.2-9,60.2c11-4.4,25.2-20.3,25.2-47.6
		C1077,451.8,1071.3,414.8,1028.9,414.8z"/>
	<path class="st24" d="M1043.3,456.4c0,0-15.9,8-30,6.4c-14.1-1.6-19.5,13-18.6,22.6l-4.7-21.5l8.5-17l24.2-12.4l22.8,1.1l10.8,9.4
		l9.2,11.4l6.5,7.5l-3.1,23.2l-6.6,7.9C1062.3,495,1068.3,465.3,1043.3,456.4z"/>
</g>
<g>
	<g>
		<rect x="1027.7" y="1061.2" class="st10" width="18.9" height="21.1"/>
		<path class="st11" d="M1027.7,1063.7c0,0,7.9,5.1,18.9,3.9v-6.4h-18.9V1063.7z"/>
		<ellipse class="st11" cx="1000.6" cy="1028.5" rx="9.2" ry="10.5"/>
		<ellipse class="st11" cx="1073.8" cy="1028.5" rx="9.2" ry="10.5"/>
		<path class="st10" d="M1073.7,1008.4c0-15.5-11.3-26.8-36.6-26.8s-36.6,11.3-36.6,26.8c0,15.5-2.6,56.2,36.6,56.2
			S1073.7,1023.9,1073.7,1008.4z"/>
		<g>
			<g>
				<ellipse class="st12" cx="1019.4" cy="1025.9" rx="4" ry="4.3"/>
				<circle class="st2" cx="1017.6" cy="1024" r="1.2"/>
			</g>
			<path class="st25" d="M1013,1015.2c1.9,0.9,4.9-3.2,11.8,0.4c1.3,0.7,2-5.6-5.4-5.6C1013,1010,1011.9,1014.6,1013,1015.2z"/>
			<g>
				<ellipse class="st12" cx="1055.5" cy="1025.9" rx="4" ry="4.3"/>
				<circle class="st2" cx="1053.7" cy="1024" r="1.2"/>
			</g>
			<path class="st25" d="M1061.3,1015.2c-1.9,0.9-4.9-3.2-11.8,0.4c-1.3,0.7-2-5.6,5.4-5.6C1061.3,1010,1062.5,1014.6,1061.3,1015.2
				z"/>
		</g>
		<path class="st11" d="M1037.2,1041.2c-3.9,0-6.3-2.9-6.3-1.5c0,1.4,1.1,4.1,6.3,4.1s6.3-2.7,6.3-4.1
			C1043.4,1038.3,1041.1,1041.2,1037.2,1041.2z"/>
		<path class="st11" d="M1037.2,1054.2c-1.4,0-2.2-1-2.2-0.5s0.4,1.4,2.2,1.4s2.2-0.9,2.2-1.4S1038.5,1054.2,1037.2,1054.2z"/>
		<path class="st14" d="M1037.2,1050.6c-6.2,0-9.9-2.5-9.9-1.9s1.8,3.2,9.9,3.2c8.1,0,9.9-2.5,9.9-3.2
			C1047.1,1048.1,1043.4,1050.6,1037.2,1050.6z"/>
	</g>
	<path class="st26" d="M1037.2,1069.7v23.8h-45.8C991.4,1083.8,1015.5,1069.7,1037.2,1069.7z"/>
	<path class="st26" d="M1037.2,1069.7v23.8h45.8C1083,1083.8,1058.9,1069.7,1037.2,1069.7z"/>
	<path class="st27" d="M1037.2,1069.7c-4.6,0-9.3,0.6-13.9,1.7c0,0,5.1,6.6,13.9,6.6c8.2,0,13.6-5.6,14.4-6.4
		C1046.8,1070.4,1041.9,1069.7,1037.2,1069.7z"/>
	<path class="st10" d="M1027.7,1070.5c0,0,2.8,3.4,9.4,3.4c6.7,0,9.4-3.4,9.4-3.4S1036.8,1067,1027.7,1070.5z"/>
	<path class="st25" d="M1067.2,978.3c0,0-13.6-17.3-41.8-10.7c-28.2,6.5-30.3,23.5-29.5,40c0.8,16.5,3.1,26.2,5.8,25
		c2.7-1.2,1.3-12.1,1.6-14.6c0.3-2.5,2.8-13.9,20-12.2c17.2,1.7,31.6-4.5,31.6-4.5s5.8,7.4,9.7,8.8c7.7,2.8,5.1,21.6,8.1,21.6
		S1090.4,988.2,1067.2,978.3z"/>
</g>
<g>
	<circle class="st2" cx="413.5" cy="955.3" r="85.5"/>
	<g>
		<g>
			<rect x="404.2" y="982.6" class="st10" width="18.9" height="21.1"/>
			<path class="st11" d="M404.2,985.1c0,0,7.9,5.1,18.9,3.9v-6.4h-18.9V985.1z"/>
			<ellipse class="st11" cx="377" cy="949.8" rx="9.2" ry="10.5"/>
			<ellipse class="st11" cx="450.2" cy="949.8" rx="9.2" ry="10.5"/>
			<path class="st10" d="M450.2,929.8c0-15.5-11.3-26.8-36.6-26.8c-25.3,0-36.6,11.3-36.6,26.8c0,15.5-2.6,56.2,36.6,56.2
				S450.2,945.3,450.2,929.8z"/>
			<g>
				<g>
					<ellipse class="st12" cx="395.8" cy="947.3" rx="4" ry="4.3"/>
					<circle class="st2" cx="394.1" cy="945.4" r="1.2"/>
				</g>
				<path class="st28" d="M389.5,936.6c1.9,0.9,4.9-3.2,11.8,0.4c1.3,0.7,2-5.6-5.4-5.6C389.5,931.4,388.3,936,389.5,936.6z"/>
				<g>
					<ellipse class="st12" cx="431.9" cy="947.3" rx="4" ry="4.3"/>
					<circle class="st2" cx="430.2" cy="945.4" r="1.2"/>
				</g>
				<path class="st28" d="M437.8,936.6c-1.9,0.9-4.9-3.2-11.8,0.4c-1.3,0.7-2-5.6,5.4-5.6C437.8,931.4,438.9,936,437.8,936.6z"/>
			</g>
			<path class="st11" d="M413.6,962.6c-3.9,0-6.3-2.9-6.3-1.5c0,1.4,1.1,4.1,6.3,4.1s6.3-2.7,6.3-4.1S417.5,962.6,413.6,962.6z"/>
			<path class="st11" d="M413.6,975.6c-1.4,0-2.2-1-2.2-0.5c0,0.5,0.4,1.4,2.2,1.4s2.2-0.9,2.2-1.4S415,975.6,413.6,975.6z"/>
			<path class="st14" d="M413.6,972c-6.2,0-9.9-2.5-9.9-1.9c0,0.6,1.8,3.2,9.9,3.2s9.9-2.5,9.9-3.2C423.5,969.5,419.8,972,413.6,972
				z"/>
		</g>
		<path class="st29" d="M413.6,991.1v23.8h-45.8C367.8,1005.2,391.9,991.1,413.6,991.1z"/>
		<path class="st29" d="M413.6,991.1v23.8h45.8C459.4,1005.2,435.3,991.1,413.6,991.1z"/>
		<path class="st30" d="M413.6,991.1c-4.6,0-9.3,0.6-13.9,1.7c0,0,5.1,6.6,13.9,6.6c8.2,0,13.6-5.6,14.4-6.4
			C423.3,991.8,418.4,991.1,413.6,991.1z"/>
		<path class="st10" d="M404.2,991.9c0,0,2.8,3.4,9.4,3.4s9.4-3.4,9.4-3.4S413.3,988.3,404.2,991.9z"/>
		<path class="st28" d="M413.6,977.9v8.8c-19.7,0-26.2-10.5-28.1-13.4c-1.4-2.2,9.3,7.6,18.7,7.6
			C408.3,980.9,408.1,977.9,413.6,977.9z"/>
		<path class="st28" d="M413.6,977.9v8.8c19.7,0,26.2-10.5,28.1-13.4c1.4-2.2-9.3,7.6-18.7,7.6C418.9,980.9,419.1,977.9,413.6,977.9
			z"/>
		<path class="st28" d="M413.9,919.6v-30.9c-32.3,0-38.3,12.1-39.8,34.7c-1.5,22.6,1.9,30.4,4.2,30.4c2.3,0,1-25.9,4.1-31.5
			C388,912.1,398.1,919.6,413.9,919.6z"/>
		<path class="st28" d="M413.9,919.6v-30.9c32.3,0,38.3,12.1,39.8,34.7c1.5,22.6-1.9,30.4-4.2,30.4c-2.3,0-1-25.9-4.1-31.5
			C439.7,912.1,429.6,919.6,413.9,919.6z"/>
		<path class="st31" d="M393.5,994.6c-14.2,4.8-25.7,13.6-25.7,20.2h25.7L393.5,994.6L393.5,994.6L393.5,994.6z"/>
		<path class="st32" d="M394.9,1014.8v-21.7c0,0-3.7,1.4-4.9,2.1l-3.8,19.6L394.9,1014.8L394.9,1014.8z"/>
		<path class="st31" d="M433.7,994.6c14.2,4.8,25.7,13.6,25.7,20.2h-25.7L433.7,994.6L433.7,994.6L433.7,994.6z"/>
		<path class="st32" d="M432.3,1014.8v-21.7c0,0,3.7,1.4,4.9,2.1l3.8,19.6L432.3,1014.8L432.3,1014.8z"/>
	</g>
</g>
<g>
	<linearGradient id="SVGID_1_" gradientUnits="userSpaceOnUse" x1="1217" y1="964.7895" x2="1850" y2="331.7895">
		<stop  offset="0" style="stop-color:#BF4C01"/>
		<stop  offset="0.3328" style="stop-color:#D95601"/>
		<stop  offset="0.754" style="stop-color:#F56101"/>
		<stop  offset="1" style="stop-color:#FF6501"/>
	</linearGradient>
	<rect x="1213" y="335.8" class="st33" width="641" height="625"/>
</g>
<g>
	<rect x="1214" y="927.8" class="st2" width="642.4" height="527"/>
</g>
<path class="st7" d="M1856,876.8c-214.7,44.4-428.8,46.4-642,0v206h642V876.8z"/>
<path class="st8" d="M1856,1005.8h-643V889.7c320,43.1,453-114.9,642-32.9L1856,1005.8z"/>
<path class="st8" d="M1213,1028.8l643-4V908.7c-300.4,2.1-351-104.9-643-61.9V1028.8z"/>
<path class="st8" d="M1213,1028.8l643-4V908.7c-206.2,0.7-234-172.9-643-4.9V1028.8z"/>
<g>
	<rect x="-3" y="100.7" class="st2" width="648.5" height="532.1"/>
</g>
<path class="st7" d="M646.2,49.2C429.4,94,213.3,96-1.9,49.2v208h648.2V49.2z"/>
<path class="st8" d="M646.2,179.5H-2.9V62.2c323.1,43.5,457.4-116,648.2-33.2L646.2,179.5z"/>
<path class="st8" d="M-2.9,202.7l649.2-4V81.4C343,83.6,291.9-24.5-2.9,18.9V202.7z"/>
<path class="st8" d="M-2.9,202.7l649.2-4V81.4C438,82.1,410-93.1-2.9,76.5V202.7z"/>
<g>
	<circle class="st2" cx="1530.5" cy="601.3" r="85.5"/>
	<g>
		<g>
			<rect x="1521.2" y="628.6" class="st10" width="18.9" height="21.1"/>
			<path class="st11" d="M1521.2,631.1c0,0,7.9,5.1,18.9,3.9v-6.4h-18.9V631.1z"/>
			<ellipse class="st11" cx="1494" cy="595.8" rx="9.2" ry="10.5"/>
			<ellipse class="st11" cx="1567.2" cy="595.8" rx="9.2" ry="10.5"/>
			<path class="st10" d="M1567.2,575.8c0-15.5-11.3-26.8-36.6-26.8s-36.6,11.3-36.6,26.8c0,15.5-2.6,56.2,36.6,56.2
				S1567.2,591.3,1567.2,575.8z"/>
			<g>
				<g>
					<ellipse class="st12" cx="1512.8" cy="593.3" rx="4" ry="4.3"/>
					<circle class="st2" cx="1511.1" cy="591.4" r="1.2"/>
				</g>
				<path class="st28" d="M1506.5,582.6c1.9,0.9,4.9-3.2,11.8,0.4c1.3,0.7,2-5.6-5.4-5.6C1506.5,577.4,1505.3,582,1506.5,582.6z"/>
				<g>
					<ellipse class="st12" cx="1548.9" cy="593.3" rx="4" ry="4.3"/>
					<circle class="st2" cx="1547.2" cy="591.4" r="1.2"/>
				</g>
				<path class="st28" d="M1554.8,582.6c-1.9,0.9-4.9-3.2-11.8,0.4c-1.3,0.7-2-5.6,5.4-5.6C1554.8,577.4,1555.9,582,1554.8,582.6z"
					/>
			</g>
			<path class="st11" d="M1530.6,608.6c-3.9,0-6.3-2.9-6.3-1.5c0,1.4,1.1,4.1,6.3,4.1s6.3-2.7,6.3-4.1S1534.5,608.6,1530.6,608.6z"
				/>
			<path class="st11" d="M1530.6,621.6c-1.4,0-2.2-1-2.2-0.5c0,0.5,0.4,1.4,2.2,1.4s2.2-0.9,2.2-1.4S1532,621.6,1530.6,621.6z"/>
			<path class="st14" d="M1530.6,618c-6.2,0-9.9-2.5-9.9-1.9c0,0.6,1.8,3.2,9.9,3.2s9.9-2.5,9.9-3.2
				C1540.5,615.5,1536.8,618,1530.6,618z"/>
		</g>
		<path class="st29" d="M1530.6,637.1v23.8h-45.8C1484.8,651.2,1508.9,637.1,1530.6,637.1z"/>
		<path class="st29" d="M1530.6,637.1v23.8h45.8C1576.4,651.2,1552.3,637.1,1530.6,637.1z"/>
		<path class="st30" d="M1530.6,637.1c-4.6,0-9.3,0.6-13.9,1.7c0,0,5.1,6.6,13.9,6.6c8.2,0,13.6-5.6,14.4-6.4
			C1540.3,637.8,1535.4,637.1,1530.6,637.1z"/>
		<path class="st10" d="M1521.2,637.9c0,0,2.8,3.4,9.4,3.4c6.7,0,9.4-3.4,9.4-3.4S1530.3,634.3,1521.2,637.9z"/>
		<path class="st28" d="M1530.6,623.9v8.8c-19.7,0-26.2-10.5-28.1-13.4c-1.4-2.2,9.3,7.6,18.7,7.6
			C1525.3,626.9,1525.1,623.9,1530.6,623.9z"/>
		<path class="st28" d="M1530.6,623.9v8.8c19.7,0,26.2-10.5,28.1-13.4c1.4-2.2-9.3,7.6-18.7,7.6
			C1535.9,626.9,1536.1,623.9,1530.6,623.9z"/>
		<path class="st28" d="M1530.9,565.6v-30.9c-32.3,0-38.3,12.1-39.8,34.7c-1.5,22.6,1.9,30.4,4.2,30.4c2.3,0,1-25.9,4.1-31.5
			C1505,558.1,1515.1,565.6,1530.9,565.6z"/>
		<path class="st28" d="M1530.9,565.6v-30.9c32.3,0,38.3,12.1,39.8,34.7c1.5,22.6-1.9,30.4-4.2,30.4c-2.3,0-1-25.9-4.1-31.5
			C1556.7,558.1,1546.6,565.6,1530.9,565.6z"/>
		<path class="st31" d="M1510.5,640.6c-14.2,4.8-25.7,13.6-25.7,20.2h25.7L1510.5,640.6L1510.5,640.6L1510.5,640.6z"/>
		<path class="st32" d="M1511.9,660.8v-21.7c0,0-3.7,1.4-4.9,2.1l-3.8,19.6L1511.9,660.8L1511.9,660.8z"/>
		<path class="st31" d="M1550.7,640.6c14.2,4.8,25.7,13.6,25.7,20.2h-25.7L1550.7,640.6L1550.7,640.6L1550.7,640.6z"/>
		<path class="st32" d="M1549.3,660.8v-21.7c0,0,3.7,1.4,4.9,2.1l3.8,19.6L1549.3,660.8L1549.3,660.8z"/>
	</g>
</g>
<g>
	<g>
		<path class="st34" d="M1947.6,12.2c20.6-20.6,47.4-32.4,47.4-57.7c0-13.8-11.1-25.3-24.9-25.3c-9.9,0-18.6,5.9-22.5,14.2
			c-4-8.3-12.6-14.2-22.5-14.2c-13.8,0-24.9,11.5-24.9,25.3C1900.1-19.9,1928.2-8,1947.6,12.2z"/>
		<path class="st34" d="M1956.7,15.7c-5.1,5.1-12.6,5.1-17.8,0c2-2.4,5.5-4.3,5.5-7.5c2,0,4.3,0,6.3,0
			C1950.7,11.4,1954.7,12.9,1956.7,15.7z"/>
	</g>
	<path class="st2" d="M1982.7-55.8c2.8,3.2,4,7.1,2.4,8.3c-1.6,1.2-5.1,0-7.9-3.6c-2.8-3.2-4-7.1-2.4-8.3
		C1976-60.6,1979.6-59,1982.7-55.8z"/>
	<g>
		<path class="st35" d="M1951.5,10.6h-7.5c-0.8,0-1.2-0.4-1.2-1.2c0-0.8,0.4-1.2,1.2-1.2h7.5c0.8,0,1.2,0.4,1.2,1.2
			C1952.7,9.8,1952.3,10.6,1951.5,10.6z"/>
		<path class="st35" d="M1940.5,18.9c-0.4,0-1.2-0.4-1.2-0.8c0-0.8,0.4-1.2,0.8-1.6c1.2-0.4,2-0.8,2-2.8c0.4-2.8,3.2-4.7,3.6-5.1
			c0.4-0.4,1.2-0.4,1.6,0.4c0.4,0.4,0.4,1.2-0.4,1.6c-0.8,0.4-2.4,2-2.4,3.6C1944.4,16.9,1943.2,18.1,1940.5,18.9L1940.5,18.9z"/>
		<path class="st35" d="M1953.9,35.5c-6.7-11.5-4-26.1-4-26.1V9h-2.4c-0.4,1.2-2.8,15.4,4.3,27.7c6.3,11.5-3.2,32-3.2,32.4
			c-0.4,0.8,0,1.2,0.4,1.6h0.4c0.4,0,0.8-0.4,1.2-0.8C1951.1,69.1,1961,48.1,1953.9,35.5z"/>
	</g>
</g>
<g>
	<g>
		<path class="st6" d="M2103.1,152.4c16.6-16.6,37.9-25.9,37.9-46.1c0-11.1-9-20.2-19.9-20.2c-7.8,0-14.8,4.5-17.8,11.4
			c-3.6-6.9-10.5-11.4-18.4-11.4c-10.8,0-19.9,9-19.9,20.2C2065.1,126.8,2087.7,136.1,2103.1,152.4z"/>
		<path class="st6" d="M2110,155.1c-4.2,3.9-9.9,3.9-14.1,0c1.5-2.1,4.5-3.3,4.5-6c1.8,0,3.3,0,5.1,0
			C2105.5,151.5,2108.5,153,2110,155.1z"/>
	</g>
	<path class="st2" d="M2131.1,97.9c2.4,2.7,3,5.7,1.8,6.6c-1.2,1.2-4.2,0-6.3-2.7c-2.4-2.7-3-5.7-1.8-6.6
		C2125.9,94,2128.7,95.2,2131.1,97.9z"/>
	<g>
		<path class="st35" d="M2106.1,150.9h-6c-0.6,0-0.9-0.3-0.9-0.9c0-0.6,0.3-0.9,0.9-0.9h6c0.6,0,0.9,0.3,0.9,0.9
			C2107.3,150.3,2106.7,150.9,2106.1,150.9z"/>
		<path class="st35" d="M2097.3,157.5c-0.3,0-0.9-0.3-0.9-0.6c0-0.6,0.3-0.9,0.6-1.2c0.9-0.3,1.5-0.6,1.8-2.1
			c0.3-2.1,2.4-3.9,2.7-4.2c0.3-0.3,0.9-0.3,1.2,0.3c0.3,0.3,0.3,0.9-0.3,1.2c-0.6,0.3-1.8,1.5-2.1,2.7
			C2100.4,156,2099.5,156.9,2097.3,157.5L2097.3,157.5z"/>
		<path class="st35" d="M2107.9,170.7c-5.1-9.3-3.3-20.8-3-20.8v-0.3h-1.8c-0.3,0.9-2.1,12.3,3.3,22c5.1,9-2.4,25.6-2.7,25.9
			c-0.3,0.6,0,1.2,0.6,1.2h0.3c0.3,0,0.6-0.3,0.9-0.6C2105.8,197.8,2113.6,180.7,2107.9,170.7z"/>
	</g>
</g>
<g>
	<g>
		<path class="st36" d="M853.2,251.9c43.4-42.6,99.1-67.8,99.1-119.9c0-28.7-23.5-52.1-52.1-52.1c-20.9,0-38.2,12.2-46.9,29.5
			c-8.7-17.4-26.1-29.5-46.9-29.5c-28.7,0-52.1,23.5-52.1,52.1C754.2,184.9,813.3,209.3,853.2,251.9z"/>
		<path class="st36" d="M871.5,257.9c-10.4,10.4-26.1,10.4-36.5,0c4.3-5.2,12.2-8.7,12.2-15.6c4.3,0,8.7,0,13,0
			C860.2,249.2,868,252.7,871.5,257.9z"/>
	</g>
	<path class="st2" d="M926.2,109.3c6.1,7,7.8,14.8,5.2,17.4c-2.6,2.6-10.4,0-16.5-7c-6.1-7-7.8-14.8-5.2-17.4
		C912.3,99.8,920.2,102.4,926.2,109.3z"/>
	<g>
		<path class="st35" d="M861.9,247.5h-15.6c-1.7,0-2.6-0.9-2.6-2.6c0-1.7,0.9-2.6,2.6-2.6h15.6c1.7,0,2.6,0.9,2.6,2.6
			C863.7,246.6,862.8,247.5,861.9,247.5z"/>
		<path class="st35" d="M838.5,264.9c-0.9,0-2.6-0.9-2.6-1.7c0-1.7,0.9-2.6,1.7-3.5c2.6-0.9,4.3-1.7,4.3-5.2c0.9-6.1,7-10.4,7-10.4
			c0.9-0.9,2.6-0.9,3.5,0.9c0.9,0.9,0.9,2.6-0.9,3.5c-1.7,0.9-5.2,4.3-5.2,7C846.3,260.5,843.7,264,838.5,264.9L838.5,264.9z"/>
		<path class="st35" d="M863.7,344.8c0,2.6,5.2,2.6,5.2,0c3.5-14.8,5.2-32.2-2.6-45.2c-13.9-24.3-7.8-53.9-7.8-53.9v-0.9h-5.2
			c-0.9,2.6-5.2,32.2,8.7,57.4C868.9,314.4,867.1,330.9,863.7,344.8z"/>
	</g>
</g>
<rect x="1424.5" y="391.6" style="fill:none;" width="217.5" height="78.2"/>
<text transform="matrix(1 0 0 1 1432.1099 425.7143)"><tspan x="0" y="0" class="st2" style="font-family:'MyriadPro-Regular'; font-size:48px;">Profil Irvin </tspan><tspan x="80.8" y="25.2" class="st2" style="font-family:'MyriadPro-Regular'; font-size:21px;">NV 3</tspan></text>
<path class="st2" d="M1663,769.8h-258c-9.4,0-17-7.6-17-17v0c0-9.4,7.6-17,17-17h258c9.4,0,17,7.6,17,17v0
	C1680,762.2,1672.4,769.8,1663,769.8z"/>
<g>
	<linearGradient id="SVGID_2_" gradientUnits="userSpaceOnUse" x1="1831.75" y1="1191.5394" x2="2615.25" y2="408.0395">
		<stop  offset="0" style="stop-color:#BF4C01"/>
		<stop  offset="0.3328" style="stop-color:#D95601"/>
		<stop  offset="0.754" style="stop-color:#F56101"/>
		<stop  offset="1" style="stop-color:#FF6501"/>
	</linearGradient>
	<rect x="1903" y="336.8" class="st37" width="641" height="926"/>
</g>
<g>
	<rect x="1903.2" y="1298.8" class="st2" width="642.4" height="159"/>
</g>
<g>
	<path class="st7" d="M2546,1224.8c-214.7,44.4-428.8,46.4-642,0v206h642V1224.8z"/>
	<path class="st8" d="M2546,1353.8h-643v-116.1c320,43.1,453-114.9,642-32.9L2546,1353.8z"/>
	<path class="st8" d="M1903,1376.8l643-4v-116.1c-300.4,2.1-351-104.9-643-61.9V1376.8z"/>
	<path class="st8" d="M1903,1376.8l643-4v-116.1c-206.2,0.7-234-172.9-643-4.9V1376.8z"/>
</g>
<g>
	<circle class="st2" cx="2220.5" cy="528.3" r="53.5"/>
	<g>
		<g>
			<rect x="2214.7" y="545.4" class="st10" width="11.8" height="13.2"/>
			<path class="st11" d="M2214.7,546.9c0,0,5,3.2,11.8,2.4v-4h-11.8V546.9z"/>
			<ellipse class="st11" cx="2197.7" cy="524.9" rx="5.8" ry="6.6"/>
			<ellipse class="st11" cx="2243.5" cy="524.9" rx="5.8" ry="6.6"/>
			<path class="st10" d="M2243.5,512.3c0-9.7-7.1-16.8-22.9-16.8s-22.9,7.1-22.9,16.8c0,9.7-1.7,35.2,22.9,35.2
				S2243.5,522,2243.5,512.3z"/>
			<g>
				<g>
					<ellipse class="st12" cx="2209.4" cy="523.3" rx="2.5" ry="2.7"/>
					<circle class="st2" cx="2208.3" cy="522.1" r="0.7"/>
				</g>
				<path class="st28" d="M2205.5,516.6c1.2,0.6,3.1-2,7.4,0.3c0.8,0.4,1.3-3.5-3.4-3.5C2205.5,513.3,2204.7,516.2,2205.5,516.6z"/>
				<g>
					<ellipse class="st12" cx="2232" cy="523.3" rx="2.5" ry="2.7"/>
					<circle class="st2" cx="2230.9" cy="522.1" r="0.7"/>
				</g>
				<path class="st28" d="M2235.7,516.6c-1.2,0.6-3.1-2-7.4,0.3c-0.8,0.4-1.3-3.5,3.4-3.5C2235.7,513.3,2236.4,516.2,2235.7,516.6z"
					/>
			</g>
			<path class="st11" d="M2220.6,532.9c-2.4,0-3.9-1.8-3.9-0.9c0,0.9,0.7,2.6,3.9,2.6s3.9-1.7,3.9-2.6S2223,532.9,2220.6,532.9z"/>
			<path class="st11" d="M2220.6,541c-0.8,0-1.4-0.6-1.4-0.3c0,0.3,0.2,0.9,1.4,0.9s1.4-0.6,1.4-0.9
				C2221.9,540.4,2221.4,541,2220.6,541z"/>
			<path class="st14" d="M2220.6,538.7c-3.9,0-6.2-1.6-6.2-1.2c0,0.4,1.1,2,6.2,2s6.2-1.6,6.2-2
				C2226.8,537.2,2224.4,538.7,2220.6,538.7z"/>
		</g>
		<path class="st29" d="M2220.6,550.7v14.9h-28.7C2191.9,559.5,2207,550.7,2220.6,550.7z"/>
		<path class="st29" d="M2220.6,550.7v14.9h28.7C2249.2,559.5,2234.1,550.7,2220.6,550.7z"/>
		<path class="st30" d="M2220.6,550.7c-2.9,0-5.8,0.4-8.7,1.1c0,0,3.2,4.1,8.7,4.1c5.1,0,8.5-3.5,9-4
			C2226.6,551.1,2223.6,550.7,2220.6,550.7z"/>
		<path class="st10" d="M2214.7,551.2c0,0,1.7,2.1,5.9,2.1c4.2,0,5.9-2.1,5.9-2.1S2220.3,549,2214.7,551.2z"/>
		<path class="st28" d="M2220.6,542.5v5.5c-12.3,0-16.4-6.6-17.6-8.4c-0.9-1.4,5.8,4.8,11.7,4.8
			C2217.3,544.3,2217.1,542.5,2220.6,542.5z"/>
		<path class="st28" d="M2220.6,542.5v5.5c12.3,0,16.4-6.6,17.6-8.4c0.9-1.4-5.8,4.8-11.7,4.8C2223.9,544.3,2224,542.5,2220.6,542.5
			z"/>
		<path class="st28" d="M2220.7,506v-19.3c-20.2,0-24,7.6-24.9,21.7c-0.9,14.2,1.2,19,2.6,19c1.4,0,0.7-16.2,2.6-19.7
			C2204.5,501.2,2210.8,506,2220.7,506z"/>
		<path class="st28" d="M2220.7,506v-19.3c20.2,0,24,7.6,24.9,21.7c0.9,14.2-1.2,19-2.6,19c-1.4,0-0.7-16.2-2.6-19.7
			C2236.9,501.2,2230.6,506,2220.7,506z"/>
		<path class="st31" d="M2208,552.9c-8.9,3-16.1,8.5-16.1,12.7h16.1L2208,552.9L2208,552.9L2208,552.9z"/>
		<path class="st32" d="M2208.9,565.5V552c0,0-2.3,0.9-3.1,1.3l-2.3,12.3L2208.9,565.5L2208.9,565.5z"/>
		<path class="st31" d="M2233.1,552.9c8.9,3,16.1,8.5,16.1,12.7h-16.1L2233.1,552.9L2233.1,552.9L2233.1,552.9z"/>
		<path class="st32" d="M2232.3,565.5V552c0,0,2.3,0.9,3.1,1.3l2.3,12.3L2232.3,565.5L2232.3,565.5z"/>
	</g>
</g>
<rect x="2114.5" y="392.6" style="fill:none;" width="217.5" height="78.2"/>
<text transform="matrix(1 0 0 1 2122.1099 426.7143)"><tspan x="0" y="0" class="st2" style="font-family:'MyriadPro-Regular'; font-size:48px;">Profil Irvin </tspan><tspan x="80.8" y="25.2" class="st2" style="font-family:'MyriadPro-Regular'; font-size:21px;">NV 3</tspan></text>
<g>
	<linearGradient id="SVGID_3_" gradientUnits="userSpaceOnUse" x1="1221" y1="2105.7896" x2="1854" y2="1472.7894">
		<stop  offset="0" style="stop-color:#BF4C01"/>
		<stop  offset="0.3328" style="stop-color:#D95601"/>
		<stop  offset="0.754" style="stop-color:#F56101"/>
		<stop  offset="1" style="stop-color:#FF6501"/>
	</linearGradient>
	<rect x="1217" y="1476.8" class="st38" width="641" height="625"/>
</g>
<g>
	<rect x="1217.2" y="2070.8" class="st2" width="642.4" height="527"/>
</g>
<path class="st7" d="M1860,2017.8c-214.7,44.4-428.8,46.4-642,0v206h642V2017.8z"/>
<path class="st8" d="M1860,2146.8h-643v-116.1c320,43.1,453-114.9,642-32.9L1860,2146.8z"/>
<path class="st8" d="M1217,2169.8l643-4v-116.1c-300.4,2.1-351-104.9-643-61.9V2169.8z"/>
<path class="st8" d="M1217,2169.8l643-4v-116.1c-206.2,0.7-234-172.9-643-4.9V2169.8z"/>
<g>
	<circle class="st2" cx="1534.5" cy="1742.3" r="85.5"/>
	<g>
		<g>
			<rect x="1525.2" y="1769.6" class="st10" width="18.9" height="21.1"/>
			<path class="st11" d="M1525.2,1772.1c0,0,7.9,5.1,18.9,3.9v-6.4h-18.9V1772.1z"/>
			<ellipse class="st11" cx="1498" cy="1736.8" rx="9.2" ry="10.5"/>
			<ellipse class="st11" cx="1571.2" cy="1736.8" rx="9.2" ry="10.5"/>
			<path class="st10" d="M1571.2,1716.8c0-15.5-11.3-26.8-36.6-26.8s-36.6,11.3-36.6,26.8c0,15.5-2.6,56.2,36.6,56.2
				S1571.2,1732.3,1571.2,1716.8z"/>
			<g>
				<g>
					<ellipse class="st12" cx="1516.8" cy="1734.3" rx="4" ry="4.3"/>
					<circle class="st2" cx="1515.1" cy="1732.4" r="1.2"/>
				</g>
				<path class="st28" d="M1510.5,1723.6c1.9,0.9,4.9-3.2,11.8,0.4c1.3,0.7,2-5.6-5.4-5.6C1510.5,1718.4,1509.3,1723,1510.5,1723.6z
					"/>
				<g>
					<ellipse class="st12" cx="1552.9" cy="1734.3" rx="4" ry="4.3"/>
					<circle class="st2" cx="1551.2" cy="1732.4" r="1.2"/>
				</g>
				<path class="st28" d="M1558.8,1723.6c-1.9,0.9-4.9-3.2-11.8,0.4c-1.3,0.7-2-5.6,5.4-5.6
					C1558.8,1718.4,1559.9,1723,1558.8,1723.6z"/>
			</g>
			<path class="st11" d="M1534.6,1749.6c-3.9,0-6.3-2.9-6.3-1.5c0,1.4,1.1,4.1,6.3,4.1s6.3-2.7,6.3-4.1S1538.5,1749.6,1534.6,1749.6
				z"/>
			<path class="st11" d="M1534.6,1762.6c-1.4,0-2.2-1-2.2-0.5s0.4,1.4,2.2,1.4s2.2-0.9,2.2-1.4S1536,1762.6,1534.6,1762.6z"/>
			<path class="st14" d="M1534.6,1759c-6.2,0-9.9-2.5-9.9-1.9c0,0.6,1.8,3.2,9.9,3.2s9.9-2.5,9.9-3.2
				C1544.5,1756.5,1540.8,1759,1534.6,1759z"/>
		</g>
		<path class="st29" d="M1534.6,1778.1v23.8h-45.8C1488.8,1792.2,1512.9,1778.1,1534.6,1778.1z"/>
		<path class="st29" d="M1534.6,1778.1v23.8h45.8C1580.4,1792.2,1556.3,1778.1,1534.6,1778.1z"/>
		<path class="st30" d="M1534.6,1778.1c-4.6,0-9.3,0.6-13.9,1.7c0,0,5.1,6.6,13.9,6.6c8.2,0,13.6-5.6,14.4-6.4
			C1544.3,1778.8,1539.4,1778.1,1534.6,1778.1z"/>
		<path class="st10" d="M1525.2,1778.9c0,0,2.8,3.4,9.4,3.4c6.7,0,9.4-3.4,9.4-3.4S1534.3,1775.3,1525.2,1778.9z"/>
		<path class="st28" d="M1534.6,1764.9v8.8c-19.7,0-26.2-10.5-28.1-13.4c-1.4-2.2,9.3,7.6,18.7,7.6
			C1529.3,1767.9,1529.1,1764.9,1534.6,1764.9z"/>
		<path class="st28" d="M1534.6,1764.9v8.8c19.7,0,26.2-10.5,28.1-13.4c1.4-2.2-9.3,7.6-18.7,7.6
			C1539.9,1767.9,1540.1,1764.9,1534.6,1764.9z"/>
		<path class="st28" d="M1534.9,1706.6v-30.9c-32.3,0-38.3,12.1-39.8,34.7c-1.5,22.6,1.9,30.4,4.2,30.4c2.3,0,1-25.9,4.1-31.5
			C1509,1699.1,1519.1,1706.6,1534.9,1706.6z"/>
		<path class="st28" d="M1534.9,1706.6v-30.9c32.3,0,38.3,12.1,39.8,34.7c1.5,22.6-1.9,30.4-4.2,30.4c-2.3,0-1-25.9-4.1-31.5
			C1560.7,1699.1,1550.6,1706.6,1534.9,1706.6z"/>
		<path class="st31" d="M1514.5,1781.6c-14.2,4.8-25.7,13.6-25.7,20.2h25.7L1514.5,1781.6L1514.5,1781.6L1514.5,1781.6z"/>
		<path class="st32" d="M1515.9,1801.8v-21.7c0,0-3.7,1.4-4.9,2.1l-3.8,19.6L1515.9,1801.8L1515.9,1801.8z"/>
		<path class="st31" d="M1554.7,1781.6c14.2,4.8,25.7,13.6,25.7,20.2h-25.7L1554.7,1781.6L1554.7,1781.6L1554.7,1781.6z"/>
		<path class="st32" d="M1553.3,1801.8v-21.7c0,0,3.7,1.4,4.9,2.1l3.8,19.6L1553.3,1801.8L1553.3,1801.8z"/>
	</g>
</g>
<rect x="1428.5" y="1532.6" style="fill:none;" width="217.5" height="78.2"/>
<text transform="matrix(1 0 0 1 1436.1099 1566.7142)"><tspan x="0" y="0" class="st2" style="font-family:'MyriadPro-Regular'; font-size:48px;">Profil Irvin </tspan><tspan x="80.8" y="25.2" class="st2" style="font-family:'MyriadPro-Regular'; font-size:21px;">NV 3</tspan></text>
<path class="st2" d="M1667,1910.8h-258c-9.4,0-17-7.6-17-17v0c0-9.4,7.6-17,17-17h258c9.4,0,17,7.6,17,17v0
	C1684,1903.2,1676.4,1910.8,1667,1910.8z"/>
<g>
	<linearGradient id="SVGID_4_" gradientUnits="userSpaceOnUse" x1="1903" y1="2112.7896" x2="2536" y2="1479.7894">
		<stop  offset="0" style="stop-color:#BF4C01"/>
		<stop  offset="0.3328" style="stop-color:#D95601"/>
		<stop  offset="0.754" style="stop-color:#F56101"/>
		<stop  offset="1" style="stop-color:#FF6501"/>
	</linearGradient>
	<rect x="1899" y="1483.8" class="st39" width="641" height="625"/>
</g>
<g>
	<rect x="1899.2" y="2077.8" class="st2" width="642.4" height="527"/>
</g>
<path class="st7" d="M2542,2024.8c-214.7,44.4-428.8,46.4-642,0v206h642V2024.8z"/>
<path class="st8" d="M2542,2153.8h-643v-116.1c320,43.1,453-114.9,642-32.9L2542,2153.8z"/>
<path class="st8" d="M1899,2176.8l643-4v-116.1c-300.4,2.1-351-104.9-643-61.9V2176.8z"/>
<path class="st8" d="M1899,2176.8l643-4v-116.1c-206.2,0.7-234-172.9-643-4.9V2176.8z"/>
<g>
	<circle class="st2" cx="2216.5" cy="1749.3" r="85.5"/>
	<g>
		<g>
			<rect x="2207.2" y="1776.6" class="st10" width="18.9" height="21.1"/>
			<path class="st11" d="M2207.2,1779.1c0,0,7.9,5.1,18.9,3.9v-6.4h-18.9V1779.1z"/>
			<ellipse class="st11" cx="2180" cy="1743.8" rx="9.2" ry="10.5"/>
			<ellipse class="st11" cx="2253.2" cy="1743.8" rx="9.2" ry="10.5"/>
			<path class="st10" d="M2253.2,1723.8c0-15.5-11.3-26.8-36.6-26.8c-25.3,0-36.6,11.3-36.6,26.8c0,15.5-2.6,56.2,36.6,56.2
				C2255.8,1780,2253.2,1739.3,2253.2,1723.8z"/>
			<g>
				<g>
					<ellipse class="st12" cx="2198.8" cy="1741.3" rx="4" ry="4.3"/>
					<circle class="st2" cx="2197.1" cy="1739.4" r="1.2"/>
				</g>
				<path class="st28" d="M2192.5,1730.6c1.9,0.9,4.9-3.2,11.8,0.4c1.3,0.7,2-5.6-5.4-5.6C2192.5,1725.4,2191.3,1730,2192.5,1730.6z
					"/>
				<g>
					<ellipse class="st12" cx="2234.9" cy="1741.3" rx="4" ry="4.3"/>
					<circle class="st2" cx="2233.2" cy="1739.4" r="1.2"/>
				</g>
				<path class="st28" d="M2240.8,1730.6c-1.9,0.9-4.9-3.2-11.8,0.4c-1.3,0.7-2-5.6,5.4-5.6
					C2240.8,1725.4,2241.9,1730,2240.8,1730.6z"/>
			</g>
			<path class="st11" d="M2216.6,1756.6c-3.9,0-6.3-2.9-6.3-1.5c0,1.4,1.1,4.1,6.3,4.1c5.1,0,6.3-2.7,6.3-4.1
				S2220.5,1756.6,2216.6,1756.6z"/>
			<path class="st11" d="M2216.6,1769.6c-1.4,0-2.2-1-2.2-0.5s0.4,1.4,2.2,1.4c1.8,0,2.2-0.9,2.2-1.4S2218,1769.6,2216.6,1769.6z"/>
			<path class="st14" d="M2216.6,1766c-6.2,0-9.9-2.5-9.9-1.9c0,0.6,1.8,3.2,9.9,3.2c8.1,0,9.9-2.5,9.9-3.2
				C2226.5,1763.5,2222.8,1766,2216.6,1766z"/>
		</g>
		<path class="st29" d="M2216.6,1785.1v23.8h-45.8C2170.8,1799.2,2194.9,1785.1,2216.6,1785.1z"/>
		<path class="st29" d="M2216.6,1785.1v23.8h45.8C2262.4,1799.2,2238.3,1785.1,2216.6,1785.1z"/>
		<path class="st30" d="M2216.6,1785.1c-4.6,0-9.3,0.6-13.9,1.7c0,0,5.1,6.6,13.9,6.6c8.2,0,13.6-5.6,14.4-6.4
			C2226.3,1785.8,2221.4,1785.1,2216.6,1785.1z"/>
		<path class="st10" d="M2207.2,1785.9c0,0,2.8,3.4,9.4,3.4s9.4-3.4,9.4-3.4S2216.3,1782.3,2207.2,1785.9z"/>
		<path class="st28" d="M2216.6,1771.9v8.8c-19.7,0-26.2-10.5-28.1-13.4c-1.4-2.2,9.3,7.6,18.7,7.6
			C2211.3,1774.9,2211.1,1771.9,2216.6,1771.9z"/>
		<path class="st28" d="M2216.6,1771.9v8.8c19.7,0,26.2-10.5,28.1-13.4c1.4-2.2-9.3,7.6-18.7,7.6
			C2221.9,1774.9,2222.1,1771.9,2216.6,1771.9z"/>
		<path class="st28" d="M2216.9,1713.6v-30.9c-32.3,0-38.3,12.1-39.8,34.7c-1.5,22.6,1.9,30.4,4.2,30.4c2.3,0,1-25.9,4.1-31.5
			C2191,1706.1,2201.1,1713.6,2216.9,1713.6z"/>
		<path class="st28" d="M2216.9,1713.6v-30.9c32.3,0,38.3,12.1,39.8,34.7c1.5,22.6-1.9,30.4-4.2,30.4c-2.3,0-1-25.9-4.1-31.5
			C2242.7,1706.1,2232.6,1713.6,2216.9,1713.6z"/>
		<path class="st31" d="M2196.5,1788.6c-14.2,4.8-25.7,13.6-25.7,20.2h25.7L2196.5,1788.6L2196.5,1788.6L2196.5,1788.6z"/>
		<path class="st32" d="M2197.9,1808.8v-21.7c0,0-3.7,1.4-4.9,2.1l-3.8,19.6L2197.9,1808.8L2197.9,1808.8z"/>
		<path class="st31" d="M2236.7,1788.6c14.2,4.8,25.7,13.6,25.7,20.2h-25.7L2236.7,1788.6L2236.7,1788.6L2236.7,1788.6z"/>
		<path class="st32" d="M2235.3,1808.8v-21.7c0,0,3.7,1.4,4.9,2.1l3.8,19.6L2235.3,1808.8L2235.3,1808.8z"/>
	</g>
</g>
<rect x="2110.5" y="1539.6" style="fill:none;" width="217.5" height="78.2"/>
<text transform="matrix(1 0 0 1 2118.1099 1573.7142)"><tspan x="0" y="0" class="st2" style="font-family:'MyriadPro-Regular'; font-size:48px;">Profil Irvin </tspan><tspan x="80.8" y="25.2" class="st2" style="font-family:'MyriadPro-Regular'; font-size:21px;">NV 3</tspan></text>
<path class="st2" d="M2349,1917.8h-258c-9.4,0-17-7.6-17-17v0c0-9.4,7.6-17,17-17h258c9.4,0,17,7.6,17,17v0
	C2366,1910.2,2358.4,1917.8,2349,1917.8z"/>
<g>
	<linearGradient id="SVGID_5_" gradientUnits="userSpaceOnUse" x1="1225" y1="5508.7896" x2="1858" y2="4875.7896">
		<stop  offset="0" style="stop-color:#BF4C01"/>
		<stop  offset="0.3328" style="stop-color:#D95601"/>
		<stop  offset="0.754" style="stop-color:#F56101"/>
		<stop  offset="1" style="stop-color:#FF6501"/>
	</linearGradient>
	<rect x="1221" y="4879.8" class="st40" width="641" height="625"/>
</g>
<g>
	<rect x="1221.7" y="5474.3" class="st2" width="641.4" height="526"/>
	<path d="M1862.6,5474.8v525h-640.4v-525H1862.6 M1863.6,5473.8h-642.4v527h642.4V5473.8L1863.6,5473.8z"/>
</g>
<path class="st7" d="M1864,5420.8c-214.7,44.4-428.8,46.4-642,0v206h642V5420.8z"/>
<path class="st8" d="M1864,5549.8h-643v-116.1c320,43.1,453-114.9,642-32.9L1864,5549.8z"/>
<path class="st8" d="M1221,5572.8l643-4v-116.1c-300.4,2.1-351-104.9-643-61.9V5572.8z"/>
<path class="st8" d="M1221,5572.8l643-4v-116.1c-206.2,0.7-234-172.9-643-4.9V5572.8z"/>
<g>
	<circle class="st2" cx="1538.5" cy="5145.3" r="85.5"/>
	<g>
		<g>
			<rect x="1529.2" y="5172.6" class="st10" width="18.9" height="21.1"/>
			<path class="st11" d="M1529.2,5175.1c0,0,7.9,5.1,18.9,3.9v-6.4h-18.9V5175.1z"/>
			<ellipse class="st11" cx="1502" cy="5139.8" rx="9.2" ry="10.5"/>
			<ellipse class="st11" cx="1575.2" cy="5139.8" rx="9.2" ry="10.5"/>
			<path class="st10" d="M1575.2,5119.8c0-15.5-11.3-26.8-36.6-26.8s-36.6,11.3-36.6,26.8c0,15.5-2.6,56.2,36.6,56.2
				S1575.2,5135.3,1575.2,5119.8z"/>
			<g>
				<g>
					<ellipse class="st12" cx="1520.8" cy="5137.3" rx="4" ry="4.3"/>
					<circle class="st2" cx="1519.1" cy="5135.4" r="1.2"/>
				</g>
				<path class="st28" d="M1514.5,5126.6c1.9,0.9,4.9-3.2,11.8,0.4c1.3,0.7,2-5.6-5.4-5.6C1514.5,5121.4,1513.3,5126,1514.5,5126.6z
					"/>
				<g>
					<ellipse class="st12" cx="1556.9" cy="5137.3" rx="4" ry="4.3"/>
					<circle class="st2" cx="1555.2" cy="5135.4" r="1.2"/>
				</g>
				<path class="st28" d="M1562.8,5126.6c-1.9,0.9-4.9-3.2-11.8,0.4c-1.3,0.7-2-5.6,5.4-5.6
					C1562.8,5121.4,1563.9,5126,1562.8,5126.6z"/>
			</g>
			<path class="st11" d="M1538.6,5152.6c-3.9,0-6.3-2.9-6.3-1.5c0,1.4,1.1,4.1,6.3,4.1s6.3-2.7,6.3-4.1S1542.5,5152.6,1538.6,5152.6
				z"/>
			<path class="st11" d="M1538.6,5165.6c-1.4,0-2.2-1-2.2-0.5c0,0.5,0.4,1.4,2.2,1.4s2.2-0.9,2.2-1.4
				C1540.8,5164.6,1540,5165.6,1538.6,5165.6z"/>
			<path class="st14" d="M1538.6,5162c-6.2,0-9.9-2.5-9.9-1.9c0,0.6,1.8,3.2,9.9,3.2s9.9-2.5,9.9-3.2
				C1548.5,5159.5,1544.8,5162,1538.6,5162z"/>
		</g>
		<path class="st29" d="M1538.6,5181.1v23.8h-45.8C1492.8,5195.2,1516.9,5181.1,1538.6,5181.1z"/>
		<path class="st29" d="M1538.6,5181.1v23.8h45.8C1584.4,5195.2,1560.3,5181.1,1538.6,5181.1z"/>
		<path class="st30" d="M1538.6,5181.1c-4.6,0-9.3,0.6-13.9,1.7c0,0,5.1,6.6,13.9,6.6c8.2,0,13.6-5.6,14.4-6.4
			C1548.3,5181.8,1543.4,5181.1,1538.6,5181.1z"/>
		<path class="st10" d="M1529.2,5181.9c0,0,2.8,3.4,9.4,3.4c6.7,0,9.4-3.4,9.4-3.4S1538.3,5178.3,1529.2,5181.9z"/>
		<path class="st28" d="M1538.6,5167.9v8.8c-19.7,0-26.2-10.5-28.1-13.4c-1.4-2.2,9.3,7.6,18.7,7.6
			C1533.3,5170.9,1533.1,5167.9,1538.6,5167.9z"/>
		<path class="st28" d="M1538.6,5167.9v8.8c19.7,0,26.2-10.5,28.1-13.4c1.4-2.2-9.3,7.6-18.7,7.6
			C1543.9,5170.9,1544.1,5167.9,1538.6,5167.9z"/>
		<path class="st28" d="M1538.9,5109.6v-30.9c-32.3,0-38.3,12.1-39.8,34.7c-1.5,22.6,1.9,30.4,4.2,30.4c2.3,0,1-25.9,4.1-31.5
			C1513,5102.1,1523.1,5109.6,1538.9,5109.6z"/>
		<path class="st28" d="M1538.9,5109.6v-30.9c32.3,0,38.3,12.1,39.8,34.7c1.5,22.6-1.9,30.4-4.2,30.4c-2.3,0-1-25.9-4.1-31.5
			C1564.7,5102.1,1554.6,5109.6,1538.9,5109.6z"/>
		<path class="st31" d="M1518.5,5184.6c-14.2,4.8-25.7,13.6-25.7,20.2h25.7L1518.5,5184.6L1518.5,5184.6L1518.5,5184.6z"/>
		<path class="st32" d="M1519.9,5204.8v-21.7c0,0-3.7,1.4-4.9,2.1l-3.8,19.6L1519.9,5204.8L1519.9,5204.8z"/>
		<path class="st31" d="M1558.7,5184.6c14.2,4.8,25.7,13.6,25.7,20.2h-25.7L1558.7,5184.6L1558.7,5184.6L1558.7,5184.6z"/>
		<path class="st32" d="M1557.3,5204.8v-21.7c0,0,3.7,1.4,4.9,2.1l3.8,19.6L1557.3,5204.8L1557.3,5204.8z"/>
	</g>
</g>
<rect x="1432.5" y="4935.6" style="fill:none;" width="217.5" height="78.2"/>
<text transform="matrix(1 0 0 1 1440.1099 4969.7144)"><tspan x="0" y="0" class="st2" style="font-family:'MyriadPro-Regular'; font-size:48px;">Profil Irvin </tspan><tspan x="80.8" y="25.2" class="st2" style="font-family:'MyriadPro-Regular'; font-size:21px;">NV 3</tspan></text>
<path class="st2" d="M1671,5313.8h-258c-9.4,0-17-7.6-17-17l0,0c0-9.4,7.6-17,17-17h258c9.4,0,17,7.6,17,17l0,0
	C1688,5306.2,1680.4,5313.8,1671,5313.8z"/>
<path class="st2" d="M2497,1097.8h-305.2c-8.5,0-15.4-6.9-15.4-15.4v-34.1c0-8.5,6.9-15.4,15.4-15.4H2497c8.5,0,15.4,6.9,15.4,15.4
	v34.1C2512.5,1090.9,2505.6,1097.8,2497,1097.8z"/>
<path class="st4" d="M2246.2,1005.8h-307.5c-7.9,0-14.3-6.4-14.3-14.3v-36.4c0-7.9,6.4-14.3,14.3-14.3h307.5
	c7.9,0,14.3,6.4,14.3,14.3v36.4C2260.5,999.4,2254.1,1005.8,2246.2,1005.8z"/>
<rect x="2186.8" y="1052.3" style="fill:none;" width="315.3" height="37.5"/>
<text transform="matrix(1 0 0 1 2195.6162 1075.0072)" class="st4" style="font-family:'MyriadPro-Regular'; font-size:32px;">Merde, je suis pas cool</text>
<path class="st2" d="M2486.3,907.8h-298c-10.5,0-19-8.5-19-19V777.8c0-10.5,8.5-19,19-19h298c10.5,0,19,8.5,19,19v110.9
	C2505.4,899.3,2496.8,907.8,2486.3,907.8z"/>
<rect x="2180.7" y="781.3" style="fill:none;" width="315.3" height="103.5"/>
<text transform="matrix(1 0 0 1 2180.6509 804.0078)"><tspan x="0" y="0" class="st4" style="font-family:'MyriadPro-Regular'; font-size:32px;">Merde, je suis pas cool  </tspan><tspan x="0" y="38.4" class="st4" style="font-family:'MyriadPro-Regular'; font-size:32px;">blablab svsvsvsvsv </tspan><tspan x="0" y="76.8" class="st4" style="font-family:'MyriadPro-Regular'; font-size:32px;">snvksvsvsdvsdv jfirue</tspan></text>
<rect x="1935.8" y="960.3" style="fill:none;" width="315.3" height="42.5"/>
<text transform="matrix(1 0 0 1 1944.6161 983.0073)" class="st2" style="font-family:'MyriadPro-Regular'; font-size:32px;">Merde, je suis pas cool</text>
<g>
	<linearGradient id="SVGID_6_" gradientUnits="userSpaceOnUse" x1="2612" y1="498.7895" x2="2972" y2="498.7895">
		<stop  offset="0" style="stop-color:#BF4C01"/>
		<stop  offset="0.3328" style="stop-color:#D95601"/>
		<stop  offset="0.754" style="stop-color:#F56101"/>
		<stop  offset="1" style="stop-color:#FF6501"/>
	</linearGradient>
	<rect x="2612" y="346.8" class="st41" width="360" height="304"/>
</g>
<g>
	<rect x="2612" y="761.8" class="st0" width="360" height="304"/>
</g>
<g>
	<rect x="2612" y="1176.8" class="st42" width="360" height="304"/>
</g>
<rect x="689" y="79.8" class="st0" width="263" height="263"/>
<g>
	<path class="st4" d="M1375.9,1008l-3.5,2.4c6.9,10.1,10.5,21.9,10.5,34.1c0,33.5-27.3,60.8-60.8,60.8c-11.5,0-22.6-3.2-32.2-9.3
		l7.4-1.2l-0.7-4.1l-15.4,2.6l7.6,15.1l3.7-1.9l-2.8-5.6c9.8,5.7,20.9,8.6,32.4,8.6c35.9,0,65-29.2,65-65
		C1387.1,1031.4,1383.2,1018.8,1375.9,1008L1375.9,1008z"/>
	<path class="st0" d="M1322.1,1092.8c9.4,0,18.5-2.7,26.3-7.8l-2.3-3.5c-7.1,4.7-15.5,7.1-24,7.1c-24.3,0-44.1-19.8-44.1-44.1
		c0-24.3,19.8-44.1,44.1-44.1s44.1,19.8,44.1,44.1c0,13.2-5.8,25.6-16,34l2.7,3.2c11.1-9.2,17.5-22.8,17.5-37.2
		c0-26.6-21.6-48.3-48.3-48.3c-26.6,0-48.3,21.6-48.3,48.3C1273.8,1071.1,1295.5,1092.8,1322.1,1092.8L1322.1,1092.8z"/>
	<path class="st4" d="M1261.2,1044.5c0-33.5,27.3-60.8,60.8-60.8c11.5,0,22.6,3.2,32.2,9.3l-7.4,1.2l0.7,4.1l15.4-2.6l-7.6-15.1
		l-3.7,1.9l2.8,5.6c-9.8-5.7-20.9-8.6-32.4-8.6c-35.8,0-65,29.2-65,65c0,9.9,2.2,19.3,6.4,28.2l3.8-1.8
		C1263.3,1062.6,1261.2,1053.7,1261.2,1044.5L1261.2,1044.5z"/>
	<path class="st43" d="M1265.8,1077c0.8,1.3,1.6,2.7,2.5,4l3.5-2.4c-0.8-1.2-1.6-2.5-2.3-3.7L1265.8,1077z"/>
	<path class="st4" d="M1332.2,1042.2c2.9-2.7,4.8-6.5,4.8-10.8c0-8.1-6.6-14.7-14.7-14.7c-8.1,0-14.7,6.6-14.7,14.7
		c0,4.3,1.8,8.1,4.8,10.8c-5,2-8.6,6.9-8.6,12.6v16.7h36.9v-16.7C1340.7,1049,1337.2,1044.1,1332.2,1042.2z M1311.6,1031.4
		c0-5.9,4.8-10.7,10.7-10.7s10.7,4.8,10.7,10.7c0,4.6-2.9,8.5-6.9,10c-0.1,0-0.2,0.1-0.3,0.1c-0.1,0-0.1,0-0.2,0.1
		c-0.1,0-0.2,0.1-0.4,0.1c0,0-0.1,0-0.1,0c-0.1,0-0.3,0.1-0.4,0.1c0,0,0,0-0.1,0c-1.6,0.4-3.3,0.4-4.9,0h0c-0.1,0-0.3-0.1-0.4-0.1
		c0,0-0.1,0-0.1,0c-0.1,0-0.2-0.1-0.4-0.1c-0.1,0-0.1,0-0.2-0.1c-0.1,0-0.2-0.1-0.3-0.1C1314.4,1039.8,1311.6,1035.9,1311.6,1031.4z
		 M1336.8,1067.4h-29v-12.7c0-5.2,4.3-9.5,9.5-9.6c0.3,0.1,0.7,0.2,1,0.3c0.1,0,0.2,0.1,0.3,0.1c0.1,0,0.2,0.1,0.3,0.1
		c0.1,0,0.2,0.1,0.3,0.1c0.1,0,0.2,0,0.3,0.1c0.1,0,0.3,0,0.4,0.1c0.1,0,0.2,0,0.3,0c0.1,0,0.3,0,0.4,0.1c0.1,0,0.2,0,0.3,0
		c0.2,0,0.3,0,0.5,0c0.1,0,0.2,0,0.2,0c0.2,0,0.5,0,0.7,0c0.2,0,0.5,0,0.7,0c0.1,0,0.2,0,0.2,0c0.2,0,0.3,0,0.5,0c0.1,0,0.2,0,0.3,0
		c0.1,0,0.3,0,0.4-0.1c0.1,0,0.2,0,0.3,0c0.1,0,0.3,0,0.4-0.1c0.1,0,0.2,0,0.3-0.1c0.1,0,0.2-0.1,0.3-0.1c0.1,0,0.2-0.1,0.3-0.1
		c0.1,0,0.2-0.1,0.3-0.1c0.3-0.1,0.7-0.2,1-0.3c5.2,0,9.5,4.3,9.5,9.6L1336.8,1067.4L1336.8,1067.4z"/>
</g>
<g>
	<path class="st4" d="M1571,989c-1.1-5.2-5.7-9.2-11.2-9.2c-1.1,0-2.3,1.1-2.3,2.3c0,1.1,1.1,2.3,2.3,2.3c3.7,0,6.9,3.2,6.9,6.9
		c0,3.7-3.2,6.9-6.9,6.9c-1.1,0-2.3,1.1-2.3,2.3c0,1.1,1.1,2.3,2.3,2.3c5.4,0,10-4,11.2-9.2h30.1v20.6h-123.8v-20.6h39
		c1.1,0,2.3-1.1,2.3-2.3c0-1.1-1.1-2.3-2.3-2.3h-4.3c0.9-2.6,3.5-4.6,6.6-4.6c3,0,5.7,2.1,6.6,4.9c1.4,4.5-2.2,8.8-6.6,8.8
		c-1.1,0-2.3,1.1-2.3,2.3c0,1.1,1.1,2.3,2.3,2.3c6.9,0,12.4-6.1,11.3-13.2c-0.7-4.7-4.4-8.6-9.1-9.5c-6.4-1.3-12.2,3.1-13.5,8.9
		h-34.7v121.5h133V989L1571,989L1571,989z M1601.1,1105.9h-123.8v-87.1h123.8V1105.9z"/>
	<path class="st4" d="M1532.3,984.4c3.7,0,6.9,3.2,6.9,6.9c0,3.7-3.2,6.9-6.9,6.9c-1.1,0-2.3,1.1-2.3,2.3c0,1.1,1.1,2.3,2.3,2.3
		c6.3,0,11.5-5.2,11.5-11.5s-5.2-11.5-11.5-11.5c-1.1,0-2.3,1.1-2.3,2.3C1530,983.2,1531.1,984.4,1532.3,984.4L1532.3,984.4z"/>
	<path class="st4" d="M1546.1,984.4c3.7,0,6.9,3.2,6.9,6.9c0,3.7-3.2,6.9-6.9,6.9c-1.1,0-2.3,1.1-2.3,2.3c0,1.1,1.1,2.3,2.3,2.3
		c6.3,0,11.5-5.2,11.5-11.5s-5.2-11.5-11.5-11.5c-1.1,0-2.3,1.1-2.3,2.3C1543.8,983.2,1544.9,984.4,1546.1,984.4L1546.1,984.4z"/>
	<path class="st0" d="M1493.3,1037.1h50.5c1.1,0,2.3-1.1,2.3-2.3c0-1.1-1.1-2.3-2.3-2.3h-50.5c-1.1,0-2.3,1.1-2.3,2.3
		S1492.2,1037.1,1493.3,1037.1L1493.3,1037.1z"/>
	<path class="st0" d="M1585,1069.2h-34.4c-1.1,0-2.3,1.1-2.3,2.3c0,1.1,1.1,2.3,2.3,2.3h34.4c1.1,0,2.3-1.1,2.3-2.3
		C1587.3,1070.4,1586.2,1069.2,1585,1069.2L1585,1069.2z"/>
	<path class="st0" d="M1493.3,1055.5h22.9c1.1,0,2.3-1.1,2.3-2.3s-1.1-2.3-2.3-2.3h-22.9c-1.1,0-2.3,1.1-2.3,2.3
		S1492.2,1055.5,1493.3,1055.5L1493.3,1055.5z"/>
	<path class="st0" d="M1585,1087.6h-22.9c-1.1,0-2.3,1.1-2.3,2.3c0,1.1,1.1,2.3,2.3,2.3h22.9c1.1,0,2.3-1.1,2.3-2.3
		S1586.2,1087.6,1585,1087.6L1585,1087.6z"/>
	<path class="st0" d="M1536.9,1053.2c0,1.1,1.1,2.3,2.3,2.3h34.4c1.1,0,2.3-1.1,2.3-2.3s-1.1-2.3-2.3-2.3h-34.4
		C1538,1050.9,1536.9,1052,1536.9,1053.2L1536.9,1053.2z"/>
	<path class="st0" d="M1529.4,1054.9c0.3-0.6,0.6-1.1,0.6-1.7c0-0.6-0.3-1.1-0.6-1.7c-0.9-0.9-2.3-0.9-3.2,0
		c-0.3,0.3-0.6,1.1-0.6,1.7c0,0.6,0.3,1.1,0.6,1.7c0.6,0.6,1.1,0.6,1.7,0.6S1528.9,1055.2,1529.4,1054.9L1529.4,1054.9z"/>
	<path class="st0" d="M1502.5,1071.5c0,1.1,1.1,2.3,2.3,2.3h34.4c1.1,0,2.3-1.1,2.3-2.3c0-1.1-1.1-2.3-2.3-2.3h-34.4
		C1503.6,1069.2,1502.5,1070.4,1502.5,1071.5L1502.5,1071.5z"/>
	<path class="st0" d="M1493.3,1073.8c0.6,0,1.1-0.3,1.7-0.6c0.3-0.6,0.6-1.1,0.6-1.7c0-0.6-0.3-1.1-0.6-1.7c-0.9-0.9-2.3-0.9-3.2,0
		c-0.3,0.6-0.6,1.1-0.6,1.7c0,0.6,0.3,1.1,0.6,1.7C1492.2,1073.5,1492.7,1073.8,1493.3,1073.8L1493.3,1073.8z"/>
	<path class="st0" d="M1585,1055.5c0.6,0,1.1-0.3,1.7-0.6c0.6-0.6,0.6-1.1,0.6-1.7c0-0.6-0.3-1.1-0.6-1.7c-0.9-0.9-2.3-0.9-3.2,0
		c-0.3,0.3-0.6,1.1-0.6,1.7c0,0.6,0.3,1.1,0.6,1.7C1583.9,1055.2,1584.5,1055.5,1585,1055.5L1585,1055.5z"/>
	<path class="st0" d="M1550.6,1087.6h-57.3c-1.1,0-2.3,1.1-2.3,2.3c0,1.1,1.1,2.3,2.3,2.3h57.3c1.1,0,2.3-1.1,2.3-2.3
		S1551.8,1087.6,1550.6,1087.6L1550.6,1087.6z"/>
</g>
<g>
	<g>
		<g>
			<g>
				<defs>
					<rect id="SVGID_7_" x="1684.3" y="979.9" width="121.8" height="127.6"/>
				</defs>
				<clipPath id="SVGID_8_">
					<use xlink:href="#SVGID_7_"  style="overflow:visible;"/>
				</clipPath>
				<path class="st44" d="M1803.4,980.5c-0.6-0.6-1.2-0.6-1.7-0.6l-71.9,9.3c-1.2,0.3-2,1.2-2,2.3v82.6c-4.3-5.2-11-8.4-18.6-8.4
					c-12.8,0-23.2,9.3-23.2,20.9c0,11.6,10.4,20.9,23.2,20.9c12.8,0,23.2-9.3,23.2-20.9c0-0.6,0-1.2,0-1.7c0-0.3,0-0.3,0-0.6V1017
					l67.3-8.7v42.3c-4.3-5.2-11-8.4-18.6-8.4c-12.8,0-23.2,9.3-23.2,20.9s10.4,20.9,23.2,20.9c12.8,0,22.9-9.3,23.2-20.6l0,0v-81.5
					C1804.3,981.6,1804,981,1803.4,980.5L1803.4,980.5z M1709.2,1102.8c-10.1,0-18.6-7.2-18.6-16.2s8.4-16.2,18.6-16.2
					c10.1,0,18.6,7.2,18.6,16.2S1719.3,1102.8,1709.2,1102.8L1709.2,1102.8z M1781.1,1079.6c-10.1,0-18.6-7.2-18.6-16.2
					s8.4-16.2,18.6-16.2c10.1,0,18.6,7.2,18.6,16.2C1799.6,1072.4,1791.2,1079.6,1781.1,1079.6L1781.1,1079.6z M1732.4,1012.6v-19.1
					l67.3-8.7v19.1L1732.4,1012.6z"/>
			</g>
		</g>
	</g>
	<path class="st0" d="M1738.8,1004.2c-1.2,0-2-0.9-2-2c-0.3-1.2,0.6-2.3,1.7-2.3l37.1-4.9c1.2-0.3,2.3,0.6,2.3,1.7
		c0,1.2-0.6,2.3-1.7,2.3L1738.8,1004.2C1739,1004.2,1738.8,1004.2,1738.8,1004.2z"/>
	<circle class="st0" cx="1784.9" cy="996.1" r="2"/>
	<circle class="st0" cx="1793.3" cy="995" r="2"/>
</g>
<g>
	<path class="st4" d="M1330.7,1269.2c2.8-2.6,4.6-6.3,4.6-10.4c0-7.8-6.3-14.1-14.1-14.1c-7.8,0-14.1,6.3-14.1,14.1
		c0,4.1,1.8,7.8,4.6,10.4c-4.8,1.9-8.2,6.6-8.2,12.1v16h35.5v-16C1339,1275.8,1335.5,1271.1,1330.7,1269.2z M1310.9,1258.8
		c0-5.7,4.6-10.3,10.3-10.3s10.3,4.6,10.3,10.3c0,4.4-2.7,8.1-6.6,9.6c-0.1,0-0.2,0.1-0.3,0.1c-0.1,0-0.1,0-0.2,0.1
		c-0.1,0-0.2,0.1-0.3,0.1c0,0-0.1,0-0.1,0c-0.1,0-0.3,0.1-0.4,0.1c0,0,0,0-0.1,0c-1.5,0.3-3.2,0.3-4.7,0h0c-0.1,0-0.3-0.1-0.4-0.1
		c0,0-0.1,0-0.1,0c-0.1,0-0.2-0.1-0.3-0.1c-0.1,0-0.1,0-0.2-0.1c-0.1,0-0.2-0.1-0.3-0.1C1313.7,1267,1310.9,1263.2,1310.9,1258.8z
		 M1335.2,1293.5h-27.9v-12.3c0-5.1,4.1-9.2,9.2-9.2c0.3,0.1,0.6,0.2,0.9,0.3c0.1,0,0.2,0.1,0.3,0.1c0.1,0,0.2,0.1,0.3,0.1
		c0.1,0,0.2,0.1,0.3,0.1c0.1,0,0.2,0,0.3,0.1s0.3,0,0.3,0.1c0.1,0,0.2,0,0.3,0c0.1,0,0.3,0,0.4,0.1c0.1,0,0.2,0,0.3,0
		c0.2,0,0.3,0,0.4,0c0.1,0,0.2,0,0.2,0c0.2,0,0.4,0,0.7,0c0.2,0,0.4,0,0.7,0c0.1,0,0.2,0,0.2,0c0.2,0,0.3,0,0.4,0c0.1,0,0.2,0,0.3,0
		c0.1,0,0.3,0,0.4-0.1c0.1,0,0.2,0,0.3,0c0.1,0,0.3,0,0.3-0.1c0.1,0,0.2,0,0.3-0.1c0.1,0,0.2-0.1,0.3-0.1c0.1,0,0.2-0.1,0.3-0.1
		c0.1,0,0.2-0.1,0.3-0.1c0.3-0.1,0.6-0.2,0.9-0.3c5.1,0,9.2,4.1,9.2,9.2L1335.2,1293.5L1335.2,1293.5z"/>
	<path class="st4" d="M1364,1210.1c2.4,0,4.3,1.9,4.3,4.3v113.1c0,2.4-1.9,4.3-4.3,4.3h-85.9c-2.4,0-4.3-1.9-4.3-4.3v-113.1
		c0-2.4,1.9-4.3,4.3-4.3H1364 M1364,1206.3h-85.9c-4.5,0-8.1,3.7-8.1,8.1v113.1c0,4.5,3.7,8.1,8.1,8.1h85.9c4.5,0,8.1-3.7,8.1-8.1
		v-113.1C1372.2,1210,1368.5,1206.3,1364,1206.3L1364,1206.3z"/>
	<path class="st0" d="M1278.9,1250.8L1278.9,1250.8c-1,0-1.9,0.9-1.9,1.9v71.3c0,2.7,2.2,5,5,5h65.5c1,0,1.9-0.9,1.9-1.9l0,0
		c0-1-0.9-1.9-1.9-1.9h-64.8c-1,0-1.9-0.9-1.9-1.9v-70.5C1280.8,1251.7,1280,1250.8,1278.9,1250.8z"/>
	<path class="st0" d="M1361.1,1213h-66.4c-1,0-1.9,0.9-1.9,1.9l0,0c0,1,0.9,1.9,1.9,1.9h64.8c1,0,1.9,0.9,1.9,1.9v70.5
		c0,1,0.9,1.9,1.9,1.9l0,0c1,0,1.9-0.9,1.9-1.9v-72.1C1365.2,1214.9,1363.3,1213,1361.1,1213z"/>
	<circle class="st0" cx="1363.3" cy="1296.8" r="1.9"/>
	<circle class="st0" cx="1363.3" cy="1303.7" r="1.9"/>
</g>
<g>
	<path class="st0" d="M1492.8,1266.8c0,1-0.8,1.8-1.8,1.8c-1,0-1.8-0.8-1.8-1.8c0-1,0.8-1.8,1.8-1.8
		C1492,1265,1492.8,1265.8,1492.8,1266.8L1492.8,1266.8z"/>
	<path class="st4" d="M1589.1,1305.9c-1,0-1.9,0.8-1.9,1.9v18.7c0,2.3-1.9,4.2-4.2,4.2h-66.8c-1,0-1.9,0.8-1.9,1.9s0.8,1.9,1.9,1.9
		h66.8c4.4,0,8-3.6,8-8v-18.7C1591,1306.7,1590.2,1305.9,1589.1,1305.9L1589.1,1305.9z"/>
	<path class="st0" d="M1499.2,1316.2c-1,0-1.9,0.8-1.9,1.9s0.8,1.9,1.9,1.9h80.7c1,0,1.9-0.8,1.9-1.9s-0.8-1.9-1.9-1.9h-52v-11h52
		c1,0,1.9-0.8,1.9-1.9s-0.8-1.9-1.9-1.9h-25v-12.9c0-1-0.8-1.9-1.9-1.9s-1.9,0.8-1.9,1.9v12.9h-52c-1,0-1.9,0.8-1.9,1.9
		s0.8,1.9,1.9,1.9h25v11H1499.2z"/>
	<path class="st0" d="M1492.8,1244.8c0,1-0.8,1.8-1.8,1.8c-1,0-1.8-0.8-1.8-1.8s0.8-1.8,1.8-1.8
		C1492,1243,1492.8,1243.8,1492.8,1244.8L1492.8,1244.8z"/>
	<path class="st4" d="M1591.2,1253.9h-77.7l-0.9-2.1l59-18.1c1-0.3,1.5-1.3,1.3-2.3c-0.3-1-1.3-1.6-2.3-1.3l-3.2,1l9.5-17.9
		l10.3-3.2c0.4-0.1,0.9,0.1,1.1,0.6l3.7,12.1c0.1,0.3,0,0.5-0.1,0.7c-0.1,0.1-0.2,0.3-0.5,0.4l-12.3,3.8c-1,0.3-1.5,1.3-1.3,2.3
		c0.3,1,1.3,1.6,2.3,1.3l12.3-3.8c1.2-0.4,2.1-1.2,2.7-2.3c0.6-1.1,0.7-2.3,0.3-3.5l-3.7-12.1c-0.8-2.4-3.3-3.8-5.8-3.1l-95.7,29.3
		h-3.6c-2.6,0-4.8,2.1-4.8,4.8v30.4c0,2.6,2.1,4.8,4.8,4.8h1.3v50.7c0,4.4,3.6,8,8,8h9.9c1,0,1.9-0.8,1.9-1.9c0-1-0.8-1.9-1.9-1.9
		h-9.9c-2.3,0-4.2-1.9-4.2-4.2v-50.7h95.5v22.7c0,1,0.8,1.9,1.9,1.9s1.9-0.8,1.9-1.9v-22.7h0.2c2.5,0,4.6-2.1,4.6-4.6v-12.7
		C1595.8,1256,1593.7,1253.9,1591.2,1253.9L1591.2,1253.9z M1571.7,1214.8l-9.5,17.9l-14,4.3l9.5-17.9L1571.7,1214.8z
		 M1552.7,1220.6l-9.5,17.9l-21.3,6.5l9.5-17.9L1552.7,1220.6z M1512.3,1233l14-4.3l-9.5,17.9l-5.7,1.8l-3.1-7.2L1512.3,1233z
		 M1507.2,1234.6l-1.4,2.6c-0.8-0.8-1.8-1.2-2.8-1.3L1507.2,1234.6z M1516.4,1271.6c-0.1,0.1-0.3,0.4-0.8,0.4h-28.9
		c-0.6,0-1-0.4-1-1v-30.4c0-0.6,0.4-1,1-1h3.8l0,0l0,0h12c0.4,0,0.8,0.3,0.9,0.6l0.7,1.6l0,0l6.3,14.7c0,0,0,0,0,0l5.9,13.9l0,0
		l0.1,0.2C1516.7,1271.1,1516.5,1271.4,1516.4,1271.6L1516.4,1271.6z M1515.1,1257.7h12.5l-8.8,8.8L1515.1,1257.7z M1540.9,1272
		h-20.6c0.1-0.6,0.2-1.2,0.1-1.8l12.6-12.6h22.3L1540.9,1272z M1560.7,1272h-14.6l14.4-14.4h14.6L1560.7,1272z M1592,1271.2
		c0,0.5-0.4,0.8-0.8,0.8h-25.1l14.4-14.4h10.8c0.5,0,0.8,0.4,0.8,0.8V1271.2z"/>
</g>
<g>
	<path class="st4" d="M1797.9,1244.9h-26.3c-1-5.1-5.5-9-10.8-9h-11.3l24.5-26c0.8-0.8,0.8-2.1-0.2-2.9c-0.8-0.8-2.1-0.8-2.9,0.2
		l-26.1,27.7l-26.3-27.9c-0.8-0.8-2.1-0.8-2.9-0.2c-0.8,0.8-0.8,2.1-0.2,2.9l24.5,26.1h-11.1c-5.3,0-9.8,3.9-10.8,9h-26.3
		c-6.8,0-12.4,5.5-12.4,12.4v66.3c0,6.8,5.5,12.4,12.4,12.4h105.9c6.8,0,12.4-5.5,12.4-12.4v-66.2
		C1810.1,1250.4,1804.6,1244.9,1797.9,1244.9L1797.9,1244.9z M1728.8,1240h32c3.1,0,5.6,2.1,6.6,4.8h-45.2
		C1723.2,1242.2,1725.8,1240,1728.8,1240L1728.8,1240z M1797.9,1331.8h-106.1c-4.5,0-8.2-3.7-8.2-8.2v-66.3c0-4.5,3.7-8.2,8.2-8.2
		h105.9c4.5,0,8.2,3.7,8.2,8.2v66.3h0.2C1806.1,1328.1,1802.4,1331.8,1797.9,1331.8L1797.9,1331.8z"/>
	<path class="st4" d="M1785.6,1255.4H1704c-6.8,0-12.4,5.5-12.4,12.4v38.2c0,6.8,5.5,12.4,12.4,12.4h81.6c6.8,0,12.4-5.5,12.4-12.4
		v-38.2C1798,1261,1792.4,1255.4,1785.6,1255.4L1785.6,1255.4z M1793.8,1306c0,4.5-3.7,8.2-8.2,8.2H1704c-4.5,0-8.2-3.7-8.2-8.2
		v-38.2c0-4.5,3.7-8.2,8.2-8.2h81.6c4.5,0,8.2,3.7,8.2,8.2V1306L1793.8,1306z"/>
	<path class="st0" d="M1758.5,1323.1h-55.9c-1.1,0-2.1,1-2.1,2.1c0,1.1,1,2.1,2.1,2.1h55.9c1.1,0,2.1-1,2.1-2.1
		C1760.6,1324.1,1759.7,1323.1,1758.5,1323.1L1758.5,1323.1z"/>
	<path class="st0" d="M1787.4,1323.1h-17.7c-1.1,0-2.1,1-2.1,2.1c0,1.1,1,2.1,2.1,2.1h17.9c1.1,0,2.1-1,2.1-2.1
		C1789.5,1324.1,1788.7,1323.1,1787.4,1323.1L1787.4,1323.1z"/>
	<circle class="st0" cx="1774.1" cy="1307.9" r="2.1"/>
	<circle class="st0" cx="1764" cy="1307.9" r="2.1"/>
	<circle class="st0" cx="1753.9" cy="1307.9" r="2.1"/>
</g>
<rect x="1277.1" y="1128.5" style="fill:none;" width="87.8" height="42.5"/>
<text transform="matrix(1 0 0 1 1279.936 1146.2806)" class="st0" style="font-family:'SegoeUI'; font-size:24px;">Routine</text>
<rect x="1494.1" y="1128.5" style="fill:none;" width="87.8" height="42.5"/>
<text transform="matrix(1 0 0 1 1496.9302 1146.2806)" class="st0" style="font-family:'SegoeUI'; font-size:24px;">Agenda</text>
<rect x="1706.1" y="1128.5" style="fill:none;" width="103.9" height="42.5"/>
<text transform="matrix(1 0 0 1 1712.3442 1146.2806)" class="st0" style="font-family:'SegoeUI'; font-size:24px;">Musique</text>
<rect x="1278.1" y="1351.5" style="fill:none;" width="87.8" height="42.5"/>
<text transform="matrix(1 0 0 1 1280.9419 1369.2806)" class="st0" style="font-family:'SegoeUI'; font-size:24px;">Contact</text>
<rect x="1495.1" y="1351.5" style="fill:none;" width="102.9" height="42.5"/>
<text transform="matrix(1 0 0 1 1506.6978 1369.2806)" class="st0" style="font-family:'SegoeUI'; font-size:24px;">Cinema</text>
<rect x="1689.9" y="1351.5" style="fill:none;" width="122.1" height="42.5"/>
<text transform="matrix(1 0 0 1 1697.6487 1369.2806)" class="st0" style="font-family:'SegoeUI'; font-size:24px;">Chaine TV</text>
</svg>
